<svg width="42" height="46" viewBox="0 0 42 46" fill="none" xmlns="http://www.w3.org/2000/svg">
<path fill-rule="evenodd" clip-rule="evenodd" d="M36.739 4.7998H4.86543L5.11427 6.11123C8.00158 21.3284 18.3232 33.4539 34.6062 40.1591L37.134 41.2L36.0743 38.7084C33.1219 31.7671 31.2895 25.4657 31.0002 20.0248C30.712 14.6053 31.955 10.1104 35.0784 6.64321L36.739 4.7998ZM31.949 7.0151C29.4237 10.7123 28.4933 15.1713 28.7575 20.1408C29.0286 25.2388 30.5571 30.9274 32.956 37.0117C19.2211 30.6066 10.4831 20.031 7.59167 7.0151H31.949Z" fill="white"/>
<path fill-rule="evenodd" clip-rule="evenodd" d="M41.1777 2.83321C40.3926 1.10914 38.655 0 36.739 0H4.86541C3.41817 0 2.04604 0.635481 1.1216 1.73388C0.197155 2.83229 -0.18364 4.27961 0.0826111 5.68284L0.33144 6.99427C3.5531 23.9736 15.1069 37.3307 32.7317 44.5885L35.2595 45.6294C37.0816 46.3797 39.1828 45.9695 40.5778 44.591C41.9727 43.2125 42.3849 41.1391 41.6209 39.343L40.5612 36.8514C37.7078 30.143 36.1067 24.4256 35.8594 19.7734C35.6181 15.2368 36.6667 12.1059 38.7157 9.8315L40.3763 7.98809C41.649 6.5753 41.9627 4.55728 41.1777 2.83321ZM30.6872 38.3845C30.4974 38.2903 30.3085 38.1953 30.1206 38.0995C29.2834 37.6727 28.4648 37.2299 27.6651 36.7717C16.5077 30.3778 9.03379 20.9635 5.92078 9.59963C5.73007 8.90343 5.55572 8.1999 5.39789 7.48931C5.29651 7.03285 5.20195 6.57347 5.11424 6.11124L4.86541 4.79982H36.739L35.0784 6.64322C34.6152 7.15738 34.1934 7.69414 33.8118 8.25316C33.5146 8.68853 33.2418 9.13741 32.9928 9.59963C31.4058 12.5461 30.788 16.0349 31.0002 20.0248C31.192 23.6329 32.0624 27.6193 33.488 31.9198C33.7393 32.6777 34.0078 33.4454 34.2928 34.2224C34.3741 34.444 34.4567 34.6663 34.5407 34.8894C34.7051 35.3263 34.8746 35.7661 35.0491 36.2087C35.243 36.7005 35.4431 37.1959 35.6492 37.6947C35.7881 38.031 35.9298 38.369 36.0742 38.7084L37.134 41.2L34.6062 40.1591C34.2674 40.0196 33.9311 39.8777 33.5974 39.7335C33.0569 39.4999 32.5231 39.2601 31.9962 39.0144C31.555 38.8086 31.1187 38.5986 30.6872 38.3845ZM32.956 37.0117C32.4839 35.8144 32.0455 34.6323 31.6438 33.4671C31.2826 32.4193 30.951 31.3851 30.6511 30.3656C29.5902 26.7576 28.9273 23.3334 28.7575 20.1408C28.5992 17.1644 28.8695 14.3711 29.6543 11.8149C29.8877 11.0551 30.1664 10.3162 30.4929 9.59963C30.9019 8.7021 31.3857 7.83966 31.9489 7.01511H7.59164C7.7855 7.88776 8.00563 8.74944 8.2518 9.59963C8.4682 10.3471 8.70473 11.0856 8.96119 11.8149C12.041 20.5732 17.9963 27.9995 26.5259 33.4806C27.4845 34.0966 28.4757 34.688 29.4989 35.254C30.6134 35.8705 31.766 36.4567 32.956 37.0117ZM14.1537 11.8149C16.3471 17.228 19.8427 22.0544 24.6074 26.0865C24.2404 24.1522 23.9971 22.2508 23.8983 20.3923C23.7429 17.4697 23.9429 14.5811 24.6152 11.8149H14.1537Z" fill="#FF9700"/>
<path fill-rule="evenodd" clip-rule="evenodd" d="M36.7393 4.79993H4.86568L5.11451 6.11135C8.00182 21.3285 18.3235 33.454 34.6065 40.1592L37.1343 41.2002L36.0745 38.7085C33.1221 31.7672 31.2898 25.4659 31.0005 20.0249C30.7123 14.6054 31.9553 10.1105 35.0786 6.64333L36.7393 4.79993ZM31.9492 7.01523C29.4239 10.7125 28.4935 15.1715 28.7578 20.1409C29.0288 25.2389 30.5573 30.9275 32.9563 37.0118C19.2213 30.6067 10.4833 20.0312 7.59191 7.01523H31.9492Z" fill="white"/>
<path fill-rule="evenodd" clip-rule="evenodd" d="M39.4708 3.5897C38.9877 2.52874 37.9184 1.84619 36.7393 1.84619H4.86573C3.97512 1.84619 3.13073 2.23726 2.56184 2.9132C1.99296 3.58914 1.75862 4.4798 1.92247 5.34332L2.1713 6.65475C5.26437 22.9563 16.3443 35.8397 33.453 42.885L35.9808 43.9259C37.1021 44.3877 38.3951 44.1352 39.2536 43.2869C40.112 42.4386 40.3656 41.1627 39.8955 40.0574L38.8357 37.5658C35.9443 30.7677 34.2543 24.8257 33.9908 19.8702C33.7315 14.994 34.8549 11.3385 37.317 8.60535L38.9776 6.76194C39.7608 5.89253 39.9539 4.65067 39.4708 3.5897ZM36.7393 4.79992L35.0787 6.64333C35.0307 6.69663 34.9831 6.75017 34.936 6.80396C34.6656 7.11257 34.4098 7.42915 34.1683 7.75366C34.0459 7.91816 33.9272 8.08471 33.8121 8.25327C31.6203 11.464 30.7551 15.4091 31.0005 20.0249C31.2547 24.8052 32.6999 30.2497 35.0494 36.2088C35.1953 36.5787 35.3446 36.9507 35.4974 37.3246C35.5477 37.4478 35.5984 37.5712 35.6495 37.6948C35.6918 37.7972 35.7344 37.8999 35.7773 38.0026C35.8751 38.2372 35.9742 38.4725 36.0746 38.7085L37.1343 41.2002L34.6065 40.1592C34.3479 40.0527 34.0907 39.9448 33.835 39.8356C33.7558 39.8017 33.6767 39.7677 33.5977 39.7336C33.4606 39.6743 33.3239 39.6147 33.1877 39.5546C32.7868 39.378 32.3898 39.1979 31.9965 39.0145C17.7865 32.3868 8.57121 21.3831 5.45773 7.75366C5.43764 7.66569 5.4178 7.57761 5.39821 7.48942C5.29683 7.03296 5.20226 6.57358 5.11456 6.11135L4.86573 4.79992H36.7393ZM31.9493 7.01522C31.7834 7.2581 31.6243 7.50427 31.4721 7.75366C31.037 8.46637 30.6572 9.20536 30.3301 9.96896C29.0291 13.0054 28.5605 16.4309 28.7578 20.1409C28.9677 24.088 29.9313 28.3891 31.4691 32.9538C31.8079 33.9592 32.1744 34.9775 32.567 36.0076C32.6941 36.3411 32.8239 36.6759 32.9563 37.0118C32.625 36.8573 32.2965 36.7003 31.971 36.541C30.9533 36.0428 29.9642 35.5211 29.004 34.9767C18.5171 29.0312 11.4778 20.373 8.36087 9.96896C8.14219 9.23901 7.94281 8.50046 7.76291 7.75366C7.70382 7.5084 7.64684 7.26225 7.59196 7.01522H31.9493ZM27.1185 9.96896H11.4939C14.1874 18.2645 19.6223 25.3611 27.6209 30.6544C26.5985 27.0662 25.943 23.5948 25.7676 20.2957C25.5754 16.6812 25.9577 13.1895 27.1185 9.96896Z" fill="#101D33"/>
</svg>
