<svg width="280" height="190" viewBox="0 0 280 190" fill="none" xmlns="http://www.w3.org/2000/svg">
<g clip-path="url(#clip0_431_1017)">
<path d="M43.8833 88.2295C43.4664 88.0746 42.8892 88.0653 42.8759 87.5244C42.8755 87.3988 42.6462 87.3136 42.5058 87.2158C42.2612 87.0793 42.0034 86.9607 41.7626 86.837C41.889 86.7015 41.9889 86.6018 42.1284 86.4484C41.6031 86.1163 40.9892 85.9224 40.2776 85.8974C40.0334 85.8864 39.7463 86.042 39.5025 86.1567C39.3231 86.2382 39.2044 86.3994 39.0287 86.4938C38.7718 86.6263 38.4957 86.6948 38.2286 86.6069C38.0618 86.5449 37.8385 86.5418 37.6981 86.444C36.9014 85.8856 35.7792 85.9133 34.7983 85.7312C34.3665 85.6505 33.8837 85.5851 33.3941 85.7453C33.241 85.791 33.0593 85.8033 32.9211 85.7748C32.4098 85.6759 31.9049 85.7848 31.4059 85.9757C31.0903 86.0979 30.7874 86.0765 30.4807 86.0424C29.6402 85.958 28.8111 85.9122 27.9106 85.9995C26.9723 86.0841 26.0181 85.9917 25.098 85.8893C23.9508 85.7708 22.7436 85.8239 21.6337 85.5825C21.4159 85.5357 21.1756 85.5376 20.9391 85.5524C20.1785 85.6118 19.4516 85.5355 18.7433 85.3977C18.035 85.2599 17.3119 85.1964 16.5305 85.2481C16.0234 85.2878 15.4747 85.3119 15.1084 85.0161C15.0838 84.9955 15.0421 84.98 15.0042 84.9774C13.7855 84.992 12.6752 84.625 11.4153 84.7497C10.6245 84.8321 9.82397 84.8197 9.04808 84.8278C8.86262 84.8273 8.7014 84.7218 8.52146 84.6777C7.98547 84.5584 7.48691 84.316 6.831 84.5398C6.74593 84.5652 6.54896 84.5262 6.53364 84.4749C6.35835 84.1361 5.78709 84.2089 5.51354 83.9134C5.602 83.7752 5.69981 83.6063 5.7938 83.4245C5.65172 83.3831 5.52283 83.3238 5.38458 83.2952C5.17061 83.2613 4.90729 83.1863 4.70355 83.3729C4.40922 83.6284 4.7806 83.755 4.80402 83.9576C4.59477 84.1877 4.38934 84.4306 4.18392 84.6736L4.17626 84.6479C4.18995 85.3144 4.48692 85.8125 5.34662 85.961C5.83326 86.0392 6.29736 86.1661 6.77081 86.2622C6.92991 86.2985 7.05114 86.3322 7.00819 86.4987L7.06858 86.4527L7.03457 86.4629C6.85507 86.5444 6.67174 86.6131 6.49224 86.6946C6.57392 86.782 6.6726 86.8643 6.75046 86.9389L6.70879 86.9234C7.30643 86.8148 7.90192 86.637 8.49234 86.6283C9.02789 86.6221 9.54133 86.7901 10.0658 86.871C11.2701 87.0563 12.4743 87.2416 13.6824 87.4397C14.1312 87.5152 14.5855 87.5472 15.07 87.5563C15.6473 87.5655 16.2118 87.7183 16.7703 87.789C17.7529 87.9147 18.7525 88.0354 19.7352 88.1611C20.466 88.2502 21.193 88.3266 21.9012 88.4644C22.4296 88.5581 22.9728 88.5775 23.5457 88.4483C23.7708 88.3951 24.0243 88.3753 24.2476 88.3785C25.6879 88.4234 27.164 88.4018 28.5294 88.6926C28.5882 88.703 28.6413 88.757 28.7324 88.8137C28.4623 88.9642 28.1922 89.1147 27.9221 89.2652L27.9485 89.2293C27.934 89.4292 28.1139 89.4733 28.3109 89.5123C28.7218 89.5852 29.1327 89.6581 29.5607 89.7259C29.673 89.9159 29.7683 90.111 29.9108 90.278C30.1712 90.5914 30.3312 90.8789 29.939 91.3034C29.7259 91.5207 29.9161 91.7852 30.2551 91.8656C30.5772 91.9511 30.8898 92.0673 31.2344 92.1041C31.7759 92.1799 32.1175 92.4551 32.2928 92.7939C32.4566 93.0943 32.6506 93.3716 32.9561 93.5878C33.0471 93.6444 33.0382 93.8008 33.0573 93.8649C32.8613 94.0771 32.7341 93.9614 32.5864 93.9636C32.0811 93.9468 31.6306 93.9277 31.0981 94.2543C30.66 94.5248 30.0892 94.7232 29.5217 94.8088C29.0602 94.8768 28.5991 95.0703 28.0717 95.2278C28.167 95.4229 28.2585 95.6051 28.3614 95.8258C27.8323 96.0397 27.304 95.946 26.7293 96.1316C26.7412 96.2956 26.757 96.4726 26.7859 96.6316C26.8936 97.1163 26.7873 97.5672 26.2153 97.9475C26.1247 98.0165 26.0587 98.106 25.9851 98.1699C25.9963 99.2004 26.3193 100.096 26.937 100.861C26.8065 101.417 26.496 101.929 26.8028 102.522C27.1933 102.713 27.6787 102.973 28.2036 103.18C28.8366 103.438 29.3565 103.813 29.8461 104.212C30.1593 104.454 30.4421 104.719 30.7914 105.019C30.7736 105.332 29.9948 105.579 30.3883 106.09C30.8013 106.232 31.3731 106.285 31.9434 105.961C32.3552 105.726 32.7503 105.622 33.2063 105.598C33.6794 105.568 34.1579 105.495 34.6441 105.448C34.7522 105.499 34.8734 105.533 34.9304 105.6C35.5421 106.283 36.4886 106.35 37.5342 106.066C38.2394 105.883 38.8149 105.949 39.2948 106.252C39.6419 106.484 40.0644 106.595 40.4906 106.72C41.0172 106.87 41.512 107.099 42.0122 107.285C42.7873 107.585 43.5585 107.871 44.4221 108.033C45.3443 108.204 46.2385 108.468 47.1382 108.688C47.1969 108.699 47.2028 108.781 47.256 108.835C47.1812 109.081 46.9277 109.101 46.7026 109.154C46.3037 109.245 45.8915 109.354 45.5201 109.227C44.4932 108.891 43.3332 108.916 42.0988 108.754C42.2698 108.955 42.431 109.06 42.4731 109.201C42.5153 109.342 42.4553 109.514 42.4085 109.668C42.3562 109.865 42.2793 110.041 42.2232 110.226C42.3525 110.411 42.5158 110.586 42.6073 110.768C42.6988 110.95 42.7261 111.165 42.8065 111.435C43.248 111.61 43.6917 111.855 43.8373 112.342C43.9024 112.561 44.1415 112.741 44.3257 112.923C44.9336 113.594 44.7916 114.111 43.7793 114.693C43.5734 114.81 43.3637 114.915 43.1068 115.047C43.3799 115.217 43.6152 115.384 43.913 115.575C44.1171 115.514 44.3515 115.43 44.5765 115.377C44.7713 115.347 44.9738 115.342 45.1631 115.355C45.5493 115.408 45.7204 115.608 45.6455 115.854C45.5558 116.174 45.2538 116.404 44.8353 116.305C44.3618 116.209 43.8854 116.352 43.4179 116.337C43.1908 116.321 42.9241 116.359 42.7067 116.438C42.2626 116.627 41.9368 116.528 41.5824 116.397C41.0783 116.198 40.5594 116.073 39.9668 116.013C39.4159 115.968 38.9174 115.725 38.3869 115.562C38.207 115.518 38.0534 115.439 37.8603 115.412C37.4872 115.342 37.1563 115.413 36.8696 115.694C36.7131 115.853 36.5357 116.003 36.3962 116.157C36.3002 116.828 36.9387 117.043 37.4509 117.393C37.2433 117.566 37.0528 117.735 36.8622 117.904C36.5679 118.159 36.1021 118.089 35.8137 118.426C35.5951 118.687 35.1396 118.837 34.8167 119.059C34.4901 119.269 34.1919 119.511 33.8729 119.746C33.7823 119.815 33.6632 119.851 33.5518 119.912C32.9094 119.685 32.9094 119.685 32.382 119.842C32.1935 120.08 32.4645 120.181 32.5445 120.325C32.7007 120.599 32.904 120.846 33.0393 121.113C33.1155 121.244 33.1653 121.411 33.1317 121.546C33.0309 121.954 32.8923 122.358 32.7745 122.771C32.0556 122.845 31.5915 122.16 30.785 122.624C30.674 122.811 30.7634 122.924 30.9076 123.035C31.3572 123.361 31.6636 123.829 32.4433 123.833C32.6287 123.834 32.824 123.929 32.9304 124.037C33.3958 124.541 34.2078 124.592 34.8485 124.876C35.0854 124.986 35.4393 124.993 35.7554 124.996C36.5049 125.024 37.1017 125.223 37.5272 125.654C37.6582 125.783 37.8573 125.891 38.0487 125.974C38.3444 126.095 38.6494 126.186 38.8923 126.378C39.0573 126.497 39.4036 126.477 39.7141 126.524C40.0681 127.089 40.5318 127.649 41.42 127.831C42.2912 128.018 42.3044 128 43.0415 127.738C43.0658 127.633 43.0445 127.5 43.1028 127.384C43.161 127.269 43.2495 127.131 43.3648 127.083C43.48 127.034 43.66 127.078 43.7982 127.107C43.8569 127.117 43.9139 127.184 43.9633 127.225C44.1875 127.48 44.3947 127.739 44.6588 128.065C43.7167 128.137 42.8774 128.43 41.9875 128.304C41.2908 128.205 40.4868 128.305 39.748 128.624C39.3681 128.779 39.013 128.955 39.0636 129.373C39.0811 129.493 38.9075 129.657 38.8059 129.813C38.6911 129.987 38.5724 130.148 38.4142 130.363C38.6035 130.376 38.7286 130.423 38.8136 130.397C39.2445 130.227 39.6588 130.187 40.1076 130.263C41.0013 130.401 41.9984 130.327 42.819 130.654C43.2937 130.569 43.6668 130.639 43.9535 130.916C43.982 130.95 44.0956 130.958 44.1675 130.95C45.2101 130.905 46.1196 131.22 47.1494 131.317C47.448 131.2 47.7844 131.086 47.9537 130.784C48.1362 130.464 48.4764 130.362 48.8452 130.294C50.3676 129.993 51.691 130.143 52.7422 130.933C53.1463 131.231 53.0995 131.385 52.516 131.727C52.4517 131.76 52.3743 131.811 52.3139 131.857L52.3403 131.821C52.3395 132.129 51.9537 132.202 51.75 132.389L51.7593 132.358C51.9414 132.471 52.1081 132.533 52.3897 132.421C53.2515 132.08 54.0861 132.082 54.9458 132.231C56.3338 132.473 57.5976 132.92 58.9555 133.185C59.9402 133.38 60.7689 133.859 61.6729 134.218C61.7354 134.241 61.8056 134.29 61.8379 134.336C62.0898 134.931 62.6548 135.21 63.463 135.248C63.6523 135.261 63.8437 135.344 63.9633 135.434C64.381 135.84 64.9795 135.983 65.6083 136.102C66.237 136.222 66.7564 136.472 67.1176 136.937C67.4865 137.427 68.2666 137.558 68.8787 137.808C69.1497 137.909 69.4471 137.974 69.7312 138.056C69.9775 138.137 70.2425 138.155 70.5394 138.094C70.9763 138.006 71.4004 138.061 71.8394 138.042C72.3371 138.033 72.7612 138.088 73.21 138.163C73.5035 138.215 73.8272 138.244 74.1411 138.179C74.7936 138.068 75.4049 138.067 76.0391 138.143C76.4841 138.206 76.9873 138.153 77.468 138.149C77.7462 138.15 78.0469 138.102 78.2855 138.157C78.6586 138.227 78.9993 138.251 79.4268 138.193C79.8033 138.151 80.2104 138.211 80.5702 138.299C80.968 138.39 81.3219 138.396 81.7358 138.23C82.2347 138.039 82.7413 137.874 83.2156 137.663C83.6728 137.456 84.085 137.347 84.6112 137.372C85.2301 137.396 85.8865 137.298 86.522 137.192C86.9286 137.127 87.3106 137.041 87.6764 137.211C87.7636 137.255 87.881 137.275 88.0116 137.278C89.0734 137.297 90.1351 137.315 91.1968 137.333C91.3823 137.334 91.6073 137.28 91.7796 137.299C92.7661 137.437 93.8103 137.335 94.8325 137.407C95.7203 137.463 96.6102 137.589 97.552 137.392C97.6579 137.374 97.8016 137.359 97.9059 137.398C98.9783 137.762 100.238 137.512 101.392 137.53C102.921 137.563 104.503 137.398 106.042 137.399C107.783 137.396 109.492 137.473 111.224 137.501C111.763 137.507 112.325 137.465 112.877 137.454C113.595 137.435 114.317 137.373 115.016 137.416C115.714 137.459 116.457 137.279 117.141 137.396C117.22 137.414 117.296 137.42 117.381 137.394C118.873 137.116 120.305 137.318 121.773 137.145C122.526 137.06 123.256 137.149 124.002 137.164C124.356 137.17 124.719 137.145 125.069 137.138C126.137 137.113 127.195 137.119 128.258 137.081C128.9 137.057 129.543 136.976 130.18 136.94C130.527 136.92 130.884 136.939 131.242 136.958C131.634 136.967 132.024 137.032 132.408 137.015C133.835 136.952 135.271 136.859 136.697 136.796C136.896 136.779 137.076 136.823 137.265 136.836C138.271 136.913 139.272 136.977 140.34 136.644C140.898 136.464 141.537 136.496 142.137 136.457C142.973 136.403 143.802 136.449 144.648 136.238C144.682 136.228 144.746 136.195 144.767 136.203C145.4 136.461 146.18 136.158 146.826 136.272C147.631 136.423 148.454 136.387 149.29 136.333C150.13 136.292 150.961 136.281 151.802 136.058C151.922 136.022 152.058 135.982 152.158 136.008C153.283 136.175 154.466 135.793 155.609 135.774C155.719 135.769 155.866 135.767 155.965 135.723C156.413 135.548 156.807 135.318 157.343 135.437C157.72 135.52 158.172 135.358 158.602 135.369C159.183 135.391 159.797 135.277 160.393 135.225C160.989 135.173 161.587 135.064 162.149 135.148C162.808 135.245 163.472 135.298 164.029 134.866C164.955 135.051 165.798 135.078 166.675 134.789C166.811 134.748 166.966 134.771 167.117 134.782C168.175 134.788 169.226 134.767 170.313 134.624C171.832 134.436 173.336 134.322 174.859 134.147C175.058 134.13 175.251 134.156 175.453 134.151C176.314 134.118 177.144 134.289 178.036 133.925C178.283 133.823 178.634 133.942 178.933 133.951C180.307 133.959 181.695 133.768 183.086 133.647C183.213 133.637 183.332 133.601 183.445 133.609C184.384 133.65 185.319 133.553 186.287 133.32C186.788 133.198 187.322 133.248 187.842 133.19C189.369 133.028 190.888 132.84 192.405 132.708C192.84 132.676 193.225 132.477 193.681 132.453C194.631 132.407 195.585 132.248 196.545 132.115C196.829 132.072 197.124 132.067 197.376 131.978C198.126 131.699 198.885 131.821 199.636 131.667C200.052 131.57 200.499 131.702 200.709 132.031C200.857 132.28 200.648 132.636 200.15 132.952C199.948 133.083 199.721 133.192 199.496 133.245C198.952 133.408 198.386 133.563 197.826 133.674C197.11 133.818 196.395 133.906 195.682 134.063C195.457 134.116 195.217 134.244 195.053 134.376C194.811 134.56 194.623 134.798 194.396 135.033C194.542 135.088 194.658 135.165 194.806 135.163C195.553 135.121 196.314 135.187 197.072 134.933C197.327 134.857 197.622 134.853 197.906 134.81C198.901 134.666 199.9 134.536 200.9 134.349C201.375 134.263 201.811 134.049 202.233 133.909C202.487 133.582 202.664 133.305 202.691 132.962C202.756 132.37 203.001 131.766 202.973 131.173C202.968 131.035 203.1 130.856 203.251 130.741C203.721 130.391 204.224 130.087 204.888 130.015C205.408 129.957 205.937 129.869 206.446 129.773C207.167 129.642 207.584 129.238 207.852 128.711C208.36 127.679 208.471 127.618 209.797 127.529C210.106 127.507 210.452 127.487 210.741 127.401C211.388 127.208 212.026 127.171 212.65 127.152C213.789 127.12 214.911 127.092 216.078 126.841C216.702 126.697 217.349 126.755 217.996 126.688C218.99 126.601 220.022 125.901 220.256 125.133C220.294 125.01 220.255 124.882 220.238 124.761C220.201 124.576 220.135 124.415 220.098 124.23C220.001 123.658 220.257 123.274 221.02 123.158C222.083 122.995 222.957 122.385 224.008 122.182C224.428 122.099 224.614 121.792 224.657 121.5C224.709 121.177 224.901 120.952 225.285 120.809C225.286 120.627 225.287 120.445 225.292 120.276C225.239 120.222 225.203 120.163 225.14 120.14C224.68 120.026 224.19 119.935 223.722 119.795C223.538 119.738 223.42 119.592 223.276 119.481C223.716 119.154 224.3 119.189 224.617 118.759C224.518 118.677 224.403 118.6 224.283 118.51C225.278 117.933 225.278 117.933 226.217 117.974C226.286 118.205 226.359 118.449 226.439 118.718C227.009 118.702 227.449 118.626 227.679 118.153C227.711 118.073 227.86 118.015 227.954 117.959C227.967 117.689 228.121 117.462 228.4 117.28C228.599 117.263 228.809 117.284 228.993 117.215C229.607 116.976 230.189 116.816 230.812 116.979C230.954 117.021 231.193 116.95 231.376 116.881C231.831 116.731 232.279 116.555 232.739 116.418C233.045 116.327 233.291 116.407 233.383 116.715C233.041 116.873 232.694 117.074 232.316 117.173C231.423 117.412 230.501 117.673 229.598 117.817C229.069 117.905 228.495 118.216 227.975 117.966C228.008 118.138 228.062 118.318 228.094 118.49C228.493 118.706 228.988 118.628 229.459 118.529C230.053 118.408 230.635 118.248 231.238 118.096C231.599 118.002 231.947 117.926 232.334 118.104C232.263 118.237 232.222 118.473 232.116 118.49C231.687 118.604 231.353 118.914 230.872 118.917C230.299 118.921 229.785 119.186 229.277 119.408C229.229 119.436 229.197 119.515 229.122 119.636C229.285 119.685 229.446 119.79 229.607 119.77C230.597 119.67 231.58 119.614 232.535 119.273C233.021 119.1 233.583 119.058 233.895 118.616C233.598 118.551 233.43 118.237 233.009 118.377C232.975 118.387 232.861 118.254 232.841 118.19C232.836 118.108 232.89 117.98 232.967 117.929C233.581 117.564 234.271 117.33 234.906 117.531C235.256 117.65 235.574 117.597 235.92 117.578C236.668 117.536 237.381 117.505 238.078 117.73C238.571 117.89 239.225 117.848 239.756 117.452C239.614 116.978 239.48 116.529 239.342 116.067C237.53 116.203 237.77 116.076 237.413 115.316L237.455 115.331C237.262 115.305 237.242 115.241 237.393 115.126L237.363 115.149C237.336 115.059 237.259 114.985 237.27 114.898C237.273 114.785 237.278 114.616 237.373 114.56C237.48 114.486 237.669 114.499 237.83 114.479C237.864 114.469 237.923 114.479 237.931 114.505C238.4 115.021 239.189 114.87 239.854 114.741C241.135 114.498 242.396 114.317 243.658 114.262C244.169 114.235 244.687 114.108 245.179 114.017C245.343 114.443 244.779 114.416 244.634 114.613C244.403 115.017 244.591 115.338 244.748 115.738C245.229 115.86 245.769 115.992 246.354 116.153C246.556 115.897 246.731 115.677 246.929 115.409C247.118 115.422 247.432 115.356 247.534 115.451C248.193 115.981 249.082 115.73 249.914 115.663C250.562 115.288 251.319 115.341 252.013 115.12C252.132 115.084 252.234 115.054 252.319 115.028C252.541 114.78 252.594 114.583 252.359 114.416C252.057 114.213 251.751 113.996 251.446 113.78C251.064 113.741 250.727 113.855 250.446 114.093C250.221 114.272 249.945 114.34 249.675 114.365C249.694 114.429 249.762 114.534 249.566 114.496C249.609 114.455 249.652 114.414 249.699 114.386C249.451 114.236 249.206 114.1 248.988 113.927C248.893 113.858 248.825 113.753 248.743 113.665C248.184 113.902 247.611 114.157 247.056 114.407C246.796 114.344 246.554 114.277 246.315 114.223L246.293 114.271L246.336 114.23C246.216 114.14 246.11 114.032 245.991 113.942L245.86 114.065L245.91 114.106C246.063 114.06 246.241 114.035 246.365 113.956C246.8 113.673 247.229 113.559 247.686 113.785C247.752 113.822 247.997 113.65 248.211 113.559C248.348 113.644 248.509 113.749 248.687 113.85C248.84 113.678 248.947 113.479 249.136 113.366C249.445 113.162 249.746 112.989 250.207 112.921C250.775 112.835 251.365 112.701 251.93 112.546C252.444 112.407 253.12 112.373 253.46 112.704C253.914 113.169 254.604 113.061 255.199 113.191C255.383 112.94 255.541 112.725 255.703 112.523L255.724 112.531C255.707 112.41 255.655 112.3 255.676 112.182C255.694 111.995 255.883 111.883 256.102 111.873C256.301 111.856 256.492 111.938 256.67 111.913C257.056 111.84 256.928 112.157 257.145 112.26C257.636 112.17 258.188 112.033 258.716 112.001C259.223 111.961 259.74 111.891 260.256 111.82C261.06 111.72 261.538 111.396 261.7 110.761C261.739 110.581 261.888 110.397 262.065 110.246C262.399 109.937 262.758 109.648 263.158 109.375C263.662 109.015 264.195 108.689 264.744 108.357C264.869 108.278 265.051 108.265 265.208 108.232L265.17 108.23C265.156 108.122 265.142 108.014 265.15 107.914C265.201 107.899 265.235 107.889 265.286 107.874C265.333 107.971 265.377 108.056 265.442 108.148L265.429 108.166C265.663 107.957 265.96 107.896 266.104 107.574C266.213 107.318 266.515 107.088 266.751 106.822C266.67 106.552 266.408 106.295 266.713 105.953C266.949 105.687 266.684 105.542 266.564 105.327C266.058 105.31 265.528 105.273 265.107 104.979C264.847 104.792 264.427 104.749 264.08 104.643C263.734 104.537 263.291 104.669 262.999 104.435C262.764 104.268 262.421 104.175 262.209 104.085C261.093 104.32 261.063 104.594 260.17 105.573C259.947 105.57 259.719 105.554 259.483 105.569C259.246 105.584 259.059 105.64 258.819 105.767C258.219 106.114 257.54 106.386 256.877 106.71C256.906 106.744 256.953 106.841 257.018 106.934C257.073 106.931 257.145 106.924 257.196 106.908C257.141 106.911 257.103 106.908 257.048 106.911C256.579 107.078 256.216 106.978 255.859 106.777C255.503 106.576 255.084 106.477 254.6 106.468C253.799 106.456 253.105 106.677 252.424 107.062C252.046 107.287 251.63 107.383 251.212 107.535C250.142 107.925 248.986 107.963 247.956 108.424C247.858 108.467 247.724 108.451 247.597 108.461C247.374 108.458 247.184 108.319 246.927 108.452C246.572 108.628 246.177 108.732 245.863 108.923C245.537 109.132 245.221 109.255 244.861 109.166C244.518 109.073 244.265 109.219 243.957 109.366C243.491 109.604 242.984 109.769 242.465 109.644L242.507 109.66C241.903 109.686 241.376 109.969 240.815 110.137C240.627 110.193 240.439 110.305 240.251 110.361C238.862 110.734 237.47 111.164 236.32 110.166C236.339 110.104 236.357 109.917 236.383 109.756C236.477 109.7 236.534 109.641 236.606 109.633C237.196 109.499 237.793 109.391 238.38 109.244C238.499 109.208 238.655 109.049 238.666 108.962C238.674 108.862 238.539 108.721 238.421 108.7C238.077 108.663 237.723 108.657 237.373 108.664C237.023 108.671 236.808 108.511 236.611 108.347C236.413 108.182 236.39 107.98 236.524 107.744C236.542 107.683 236.512 107.58 236.458 107.526C236.324 107.385 236.155 107.253 235.925 107.043C235.807 107.329 235.683 107.534 235.634 107.744C235.498 108.469 235.004 108.924 234.074 109.16C233.522 109.297 233 109.536 232.416 109.753C232.136 109.683 231.814 109.597 231.551 109.522C231.226 109.242 231.27 108.768 230.66 108.712C230.091 109.288 229.734 109.953 229.42 110.578C228.714 111.068 227.98 111.217 227.141 111.076C227.124 110.956 227.136 110.812 227.094 110.671C226.878 110.009 226.303 109.636 225.442 109.544C225.097 109.507 224.734 109.532 224.465 109.375C224.436 109.341 224.408 109.308 224.417 109.277C224.475 109.036 224.533 108.796 224.596 108.511C226.195 108.034 227.765 107.705 229.33 107.545C229.399 107.901 229.199 107.975 228.919 108.031C228.83 108.043 228.696 108.153 228.677 108.215C228.662 108.289 228.731 108.394 228.814 108.425C229.447 108.683 230.169 108.496 230.569 107.971C230.674 107.828 230.838 107.695 230.906 107.549C231.051 107.227 231.317 107.063 231.724 106.998C232.007 106.955 232.234 106.845 232.476 106.662C232.915 106.335 233.4 106.344 233.679 106.721C233.938 107.091 234.25 107.082 234.738 106.978C235.574 106.798 236.256 106.413 236.915 105.951C237.432 105.573 238.004 105.318 238.653 105.194L238.61 105.235C238.379 105.206 238.165 105.172 237.837 105.131C237.734 104.91 237.595 104.63 237.511 104.348C237.396 103.963 237.327 103.607 236.991 103.288C236.761 103.077 236.841 102.662 236.775 102.318C237.702 101.762 238.686 101.58 239.696 101.488C239.84 101.473 240.016 101.504 240.111 101.574C240.727 101.962 241.49 101.847 242.256 101.744C242.971 101.656 243.649 101.383 244.376 101.334C245.009 101.285 245.481 100.878 245.889 100.505C246.596 100.517 247.253 100.545 247.923 100.554C248.256 100.553 248.484 100.694 248.728 100.831C249.056 100.998 249.429 101.069 249.834 100.808C250.053 100.673 250.264 100.638 250.507 100.705C250.85 100.798 251.207 100.691 251.517 100.487C251.749 100.334 251.981 100.181 252.21 100.015C252.451 99.831 252.657 99.5881 253.016 99.5506C253.451 99.5184 253.883 99.4735 254.216 99.723C254.266 99.7642 254.359 99.7644 254.359 99.7644C254.816 99.6837 255.198 99.5975 255.575 99.555C255.968 99.5074 256.364 99.529 256.761 99.4941C257.539 99.4296 258.012 99.0926 258.188 98.4394C258.25 98.2114 258.506 97.9532 258.252 97.7218C258.227 97.7013 258.418 97.5326 258.497 97.4252C257.925 97.3724 257.355 97.3887 256.766 97.523C256.172 97.6444 255.568 97.6709 254.964 97.6975C254.728 97.7122 254.508 97.5963 254.549 97.3606C254.59 97.1249 254.583 96.9172 254.306 96.7345C254.053 96.7543 253.735 96.8072 253.436 96.7987C252.607 96.7529 251.919 97.0561 251.368 97.5698C250.891 98.0196 250.33 98.1873 249.739 98.1959C249.077 98.212 248.478 98.377 247.848 98.565C247.423 98.692 246.982 98.7677 246.545 98.8562C246.265 98.9118 245.982 98.9546 245.706 99.0231C244.635 99.2868 243.577 99.5889 242.499 99.8269C241.663 100.007 240.827 100.061 240.016 99.9534C239.727 99.9142 239.481 99.9597 239.247 100.169C239.143 100.256 238.988 100.358 238.848 100.386C237.954 100.555 237.035 100.83 236.114 100.602C236.057 100.409 235.962 100.214 235.934 99.9987C235.887 99.5936 236.053 99.4043 236.588 99.1469C236.622 99.1367 236.673 99.1215 236.703 99.0985C237.922 98.5251 238.032 98.0871 237.157 97.3285C236.885 97.4098 236.931 97.5637 236.939 97.715C236.937 97.7714 236.964 97.8611 236.921 97.902C236.79 98.0247 236.647 98.1653 236.477 98.2161C236.392 98.2415 236.176 98.1384 236.149 98.0486C235.95 97.5072 235.506 97.1369 234.943 96.9277C234.38 97.1518 233.868 97.3606 233.373 97.5643C232.981 97.4299 232.762 97.2576 232.261 97.3792C231.267 97.6482 231.221 97.6199 231.768 98.211C232.042 98.5065 231.911 98.8112 231.389 98.9251C230.99 99.0163 230.619 99.1409 230.258 99.3603C230.073 99.4854 229.811 99.536 229.569 99.5943C228.731 99.8304 227.971 100.141 227.343 100.706C227.153 100.874 226.875 100.999 226.626 101.158C226.511 101.457 226.401 101.77 226.281 102.113C224.773 102.773 223.205 103.171 221.594 103.359C221.217 103.401 220.738 103.349 220.503 103.181C219.86 102.703 218.952 102.764 218.169 102.565C217.927 102.498 217.628 102.489 217.402 102.417C217.302 102.391 217.224 102.191 217.263 102.137C217.329 102.047 217.526 101.961 217.669 101.946C217.817 101.944 217.937 102.034 218.079 102.075C218.217 102.104 218.368 102.114 218.578 102.135C218.948 101.634 219.328 101.171 219.897 100.778C220.25 100.533 220.203 100.128 220.213 99.7892C220.23 99.2253 220.192 98.6638 219.732 98.2422C219.658 98.1805 219.645 98.0728 219.571 98.0111C219.127 97.6408 219.57 97.2011 219.633 96.7911C219.644 96.704 219.85 96.5866 219.999 96.5281C220.178 96.4466 220.398 96.4369 220.577 96.3554C220.757 96.2738 220.967 96.1693 221.042 96.049C221.296 95.596 221.702 95.2793 222.255 95.086C222.877 94.8724 223.26 94.4787 223.548 94.0155C223.623 93.3364 223.209 92.9431 222.518 92.6746C221.993 92.4681 221.494 92.2258 220.85 92.1805C220.396 92.1485 219.949 92.0165 219.549 91.8565C219.091 91.6861 218.77 91.4186 218.916 90.9141C218.972 90.7297 218.918 90.5501 218.9 90.3039C219.193 90.2304 219.488 90.1005 219.719 90.1293C220.139 90.1715 220.647 89.8242 220.991 90.1687C221.061 90.092 221.206 90.0206 221.204 89.9514C221.197 89.4925 221.207 89.0286 220.953 88.6152C220.599 88.0503 220.792 87.5177 221.466 86.9812C221.946 86.6006 222.512 86.2638 222.643 85.7079C222.348 85.4046 222.118 85.0682 221.784 84.8187C221.425 84.5485 220.846 84.9032 220.41 84.8098C220.192 84.763 219.982 84.742 219.713 84.7105C220.04 84.3756 220.406 84.2381 220.79 84.0956C221.289 83.9048 221.877 83.8269 222.229 83.3306C222.348 83.1694 222.709 83.0756 222.97 82.9558C222.892 82.7556 222.825 82.594 222.743 82.381C222.988 82.2099 223.233 82.0389 223.543 81.8346C223.472 81.6601 223.423 81.4934 223.356 81.3317C223.201 81.0006 223.26 80.8854 223.636 80.7173C223.785 80.6587 223.938 80.613 224.104 80.5494C224.203 80.5061 224.305 80.4756 224.518 80.3839C224.31 80.3064 224.194 80.2292 224.077 80.2084C223.505 80.1556 223.112 79.8956 222.676 79.6765C222.564 79.6121 222.428 79.5272 222.397 79.4246C222.281 79.0961 222.056 78.8418 221.734 78.6307C221.486 78.4813 221.388 78.2171 221.59 77.9613C221.801 77.6748 221.762 77.4209 221.75 77.1312C221.727 76.621 221.983 76.3628 222.655 76.1904C223.169 76.0508 223.685 75.9804 224.207 75.8665C224.364 75.8336 224.514 75.7751 224.667 75.7293C224.901 75.2122 224.599 74.8833 224.162 74.7206C223.345 74.4056 222.859 73.8942 222.502 73.2601C222.342 72.9726 222.033 72.7436 221.764 72.4609C221.287 72.4775 220.776 72.5043 220.261 72.5183C220.038 72.5151 219.794 72.5042 219.593 72.4524C218.966 72.2764 218.309 72.249 217.619 72.4829C216.494 72.8746 215.572 72.7029 214.787 72.183L214.821 72.1728C213.202 72.8938 211.672 72.7358 210.163 72.46C209.79 72.3898 209.443 72.2837 209.109 72.1598C209.005 72.1211 208.946 71.985 208.932 71.8773C208.934 71.8209 209.081 71.6932 209.17 71.6806C209.794 71.5362 210.435 71.3867 211.067 71.268C212.02 71.1091 212.152 71.0556 213.14 70.3278C212.888 69.7324 212.232 69.523 211.518 69.4287C211.287 69.3999 210.93 69.5066 210.728 69.6368C210.345 69.9049 209.933 70.014 209.503 70.1282C208.399 70.402 207.28 70.6245 206.166 70.8035C205.123 70.9749 204.089 71.172 203.045 71.3999C202.748 71.4606 202.419 71.6007 202.178 71.7846C201.98 71.9276 201.905 72.1735 201.781 72.3782C201.234 72.4715 200.678 72.5956 200.12 72.6505C199.083 72.7784 198.818 72.6341 198.467 71.8308C198.415 71.7205 198.334 71.6331 198.235 71.5508C197.977 71.3066 197.719 71.0624 197.419 70.8027C197.59 70.5699 197.782 70.3448 197.899 70.1144C198.22 69.5155 198.859 69.2968 199.499 69.3293C200.349 69.3829 201.181 69.1904 202.011 69.0542C202.698 68.933 203.209 68.5986 203.539 68.0254C202.72 67.6412 201.777 67.5874 200.846 67.572C200.606 67.5739 200.373 67.6015 200.119 67.6213C199.79 67.6358 199.51 67.5658 199.305 67.3755C198.895 66.9951 198.488 66.6274 198.078 66.2469C197.738 65.9153 197.803 65.449 197.663 65.0436C197.61 64.864 197.76 64.6235 198.064 64.4628C198.72 64.1134 199.421 63.918 200.159 63.9072C201.56 63.8802 202.948 63.6892 204.346 63.4674C205.053 63.354 205.091 63.3567 205.815 62.987C205.859 62.7641 205.619 62.766 205.456 62.7169C204.876 62.5128 204.296 62.3087 203.73 62.0867C203.58 62.0196 203.381 61.9114 203.363 61.7909C203.318 61.3294 202.938 61.2335 202.464 61.1374C202.091 61.0672 201.771 60.9253 201.424 60.8193C201.359 60.4756 201.304 60.1704 201.235 59.8139C200.97 59.7953 200.68 59.756 200.364 59.7526C199.846 59.7537 199.327 59.7549 198.824 59.8073C198.067 59.8796 197.317 60.0339 196.552 60.0805C195.332 60.1516 194.085 60.384 192.855 60.3601C192.11 60.3453 191.347 60.4611 190.587 60.5205C189.192 60.6295 187.794 60.7257 186.4 60.8347C185.17 60.9364 183.927 60.9304 182.708 61.0707C180.953 61.2735 179.206 61.32 177.447 61.51C176.064 61.6575 174.66 61.6716 173.283 61.7755C171.217 61.9313 169.137 62.1051 167.058 62.2789C166.733 62.3062 166.43 62.2848 166.101 62.2993C165.274 62.3227 164.428 62.2819 163.614 62.413C162.483 62.5971 161.395 62.489 160.269 62.6295C159.322 62.7448 158.375 62.6781 157.409 62.8549C156.633 62.9887 155.842 62.9455 155.057 62.9844C154.217 63.0256 153.39 63.049 152.55 63.0903C150.122 63.2144 147.681 63.3564 145.267 63.4626C144.406 63.4962 143.548 63.4169 142.678 63.4812C141.136 63.5923 139.607 63.56 138.063 63.7275C136.951 63.8501 135.883 63.7497 134.797 63.8365C134.02 63.901 133.245 63.7272 132.453 63.9916C132.432 63.9838 132.398 63.994 132.377 63.9863C132.381 63.9991 132.389 64.0247 132.392 64.0376C132.423 64.0146 132.453 63.9916 132.462 63.9609C132.255 63.7014 131.897 64.1157 131.603 63.938C131.396 63.8041 131.03 63.9416 130.702 64.0253C130.443 64.0886 130.154 64.0494 129.902 64.0128C128.919 63.8871 127.909 63.9792 126.882 64.0764C126.341 64.1261 125.79 64.0811 125.256 64.0309C124.932 64.0018 124.658 64.0139 124.358 64.1874C124.152 64.3047 124.101 63.8868 123.808 64.0859C123.774 64.0961 123.74 64.1062 123.693 64.1343C123.659 64.1445 123.642 64.1495 123.608 64.1597C123.693 64.1343 123.761 64.114 123.85 64.1014C123.201 63.974 122.538 63.9902 121.875 64.1883C121.636 64.2594 121.504 64.1873 121.337 64.1253C121.083 64.0195 120.759 64.5493 120.552 64.1642C120.236 64.1608 119.914 64.2009 119.638 64.1437C118.732 63.967 117.773 64.0438 116.838 64.0156L116.799 64.0694L116.859 64.0234C116.67 64.0101 116.48 63.9967 116.278 64.0013L116.221 64.0601L116.299 64.009C115.962 63.9979 115.614 63.9482 115.267 63.9678C114.633 64.0173 114.017 64.0618 113.399 63.9806C112.937 63.923 112.468 63.9653 112 64.1332C112.003 64.146 111.994 64.1767 111.998 64.1896C112.011 64.1716 112.02 64.1409 112.017 64.1281C111.789 64.1121 111.562 64.0961 111.339 64.0929C110.813 64.0684 110.219 64.3154 109.764 64.0322C109.719 64.0039 109.613 64.0216 109.524 64.0341C108.4 64.2438 107.364 63.9385 106.231 64.1789C105.989 64.2372 105.698 64.1288 105.446 64.0922C104.719 64.0159 103.996 63.9524 103.241 63.9683C101.865 64.0158 100.467 64.112 99.1281 63.9109C98.5279 63.8247 97.8958 63.8179 97.2543 63.8417C96.5031 63.8704 95.7613 63.8684 95.036 63.7357C93.9964 63.5432 92.85 63.6759 91.7674 63.6499C90.7435 63.6343 89.6861 63.7544 88.737 63.493C88.5362 63.4411 88.2657 63.466 88.0292 63.4808C86.8258 63.5467 85.6582 63.5461 84.5258 63.3533C84.3914 63.3376 84.225 63.4012 84.1361 63.4138C83.9324 63.6003 84.0728 63.6981 84.0694 63.8109C84.0707 64.1877 83.9389 64.3668 83.5382 64.5144C83.0052 64.7154 82.4684 64.9036 81.9316 65.0918C81.8125 65.1274 81.6896 65.1501 81.5799 65.155C81.1409 65.1743 80.7151 65.1757 80.2799 65.2078C79.8826 65.2426 79.4874 65.3466 79.0995 65.3507C77.9357 65.3629 76.8004 65.4085 75.6204 65.677C75.0815 65.796 74.4817 65.8354 73.9385 65.816C72.57 65.7635 71.1829 65.7725 69.9306 65.3641C69.5839 65.2581 69.2014 65.2186 68.8284 65.1484C67.9224 65.838 67.9224 65.838 66.8828 65.6455C66.5995 65.8139 66.2992 65.9874 65.9725 66.1967C65.0954 65.9277 64.2314 65.6408 63.2828 65.5049C62.8 65.4395 62.398 65.2103 61.9016 65.0372C61.2746 65.42 60.6898 65.9439 59.7599 65.7465C59.651 66.0025 59.5477 66.215 59.4613 66.4224C59.1644 66.4831 58.9696 66.5134 58.7748 66.5436C58.1733 66.6393 57.7484 66.892 57.398 67.3319C57.0607 67.7539 56.7311 68.2016 56.0539 68.292C56.085 68.5202 56.1024 68.6408 56.1275 68.7869C55.7367 69.0294 55.3326 69.2897 54.9719 69.5092C54.3309 69.6587 53.8212 69.5035 53.3231 69.3868C52.5485 69.2129 51.7815 69.0647 50.9788 68.9831C50.0834 68.9012 49.2951 68.6196 48.7217 68.0644C48.7553 67.9286 48.785 67.78 48.8148 67.6314C47.8981 67.4162 46.9648 67.3316 45.949 67.4673C45.7333 67.4897 45.5041 67.4045 45.2731 67.3757C44.7732 67.3154 44.2904 67.25 43.7774 67.2076C43.2057 67.1547 42.5741 67.2735 42.2035 66.8393C42.118 66.7391 41.7662 66.8022 41.5391 66.7862C41.3668 66.7678 41.3191 66.6703 41.3029 66.3677C40.8814 66.5076 40.5717 66.7118 40.5352 67.0859C40.5097 67.373 40.4255 67.6496 40.4 67.9366C40.3771 68.4184 40.5575 68.5881 41.1709 68.6564C41.6329 68.7141 42.1004 68.7282 42.5585 68.773C43.1302 68.8258 43.3561 69.0238 43.1932 69.5335C43.1745 69.5949 43.1558 69.6564 43.1371 69.7179C43.1278 69.7486 43.0976 69.7716 43.0712 69.8074C42.5897 70.1188 42.075 70.1328 41.579 70.0853C41.2553 70.0562 40.9524 70.0349 40.6368 70.1571C40.0736 70.3811 39.5173 70.3796 38.9834 70.3294C38.1297 70.263 37.3185 70.4633 36.4733 70.6737C36.2113 70.9755 35.9493 71.2773 35.6741 71.5969C35.7601 71.8227 35.8971 72.0333 35.9112 72.2666C35.9176 72.4742 35.8049 72.7174 35.7015 72.9299C35.5982 73.1424 35.4229 73.3624 35.611 73.5577C35.8067 73.7787 36.059 73.9408 36.4337 73.9547C36.5094 73.96 36.589 73.9782 36.6609 73.9707C37.2832 73.8827 37.6984 74.094 38.0855 74.3975C37.9282 74.8636 37.6283 75.1627 36.9945 75.2122C36.724 75.2371 36.4309 75.3107 36.1548 75.3791C35.7256 75.4933 35.4428 75.7873 35.4326 76.1256C35.434 76.5024 35.4995 76.8461 35.8751 77.1111C36.5354 77.5846 37.1578 78.0554 37.9915 78.3652C39.0754 78.7681 40.05 79.3013 41.1339 79.7042C41.8426 79.9676 42.6305 80.1235 43.3749 80.3204C44.1742 80.5148 44.9922 80.6477 45.7822 80.8729C46.6763 81.1368 47.576 81.3571 48.5153 81.5238C48.8466 81.5785 49.1198 81.7484 49.4286 81.8518C49.925 82.0249 50.0739 82.3995 50.1378 82.7996C50.1744 82.9842 49.9235 83.1989 49.6755 83.1751C49.4105 83.1565 49.151 83.0942 48.9349 82.9911C48.5273 82.8054 48.0939 82.7812 47.5626 82.9258C47.4087 83.2792 47.421 83.5688 47.823 83.7981C48.2952 84.0762 48.7279 84.408 48.8943 84.9032C48.8769 85.3415 48.2601 85.386 47.9262 85.6952C48.0419 85.7724 48.1104 85.8777 48.2278 85.8985C48.563 85.9661 48.8944 86.0208 49.2428 86.0705C50.057 86.1906 50.4505 86.7018 50.944 87.1133C51.092 87.2367 51.0249 87.5082 51.0598 87.7493C50.5072 87.7606 50.0304 87.7772 49.5327 87.7861C49.4013 88.0908 49.2962 88.3597 49.161 88.6515C47.8006 88.7503 46.485 88.6263 45.1203 88.5867C45.242 88.7459 45.3522 88.8667 45.4454 88.9925C45.211 89.0765 44.9975 89.1682 44.7461 89.2572C44.8031 89.324 44.8393 89.3831 44.8809 89.3986C45.0609 89.4426 45.2447 89.4995 45.434 89.5129C46.8913 89.5527 46.9071 89.7296 47.8395 90.1218C47.133 90.4864 46.7115 90.6263 46.2002 90.5275C45.0091 90.3243 43.7636 90.2491 42.5857 90.028C42.3679 89.9813 42.1161 89.9447 41.968 89.8213C41.5047 89.3868 40.8288 89.2952 40.121 89.283C38.8529 89.2565 37.6938 88.974 36.4763 88.8066C35.8004 88.715 35.0849 88.6772 34.4485 88.5319C33.833 88.3944 33.2757 88.1416 32.7091 87.9197C32.4798 87.8344 32.3164 87.6597 32.0965 87.5437C31.8974 87.4355 31.572 87.4628 31.4691 87.2421C31.5048 87.1756 31.5498 87.0783 31.5877 87.081C31.8582 87.0561 32.1683 86.9774 32.407 87.0319C34.0413 87.3542 35.79 87.3769 37.3942 87.7222C38.8222 88.0363 40.3591 88.0943 41.8003 88.3905C42.4328 88.5229 43.0934 88.5632 43.7948 88.3677L43.8833 88.2295ZM235.756 116.16C235.904 116.158 236.064 116.012 236.269 116.202C236.038 116.173 235.904 116.158 235.766 116.129C235.705 116.175 235.653 116.247 235.602 116.262C235.516 116.287 235.42 116.274 235.331 116.287C235.363 116.207 235.387 116.102 235.451 116.069C235.593 115.985 235.731 116.014 235.756 116.16ZM41.5977 91.6223L41.6071 91.5915C41.987 91.995 42.6532 91.9917 43.227 92.1137C43.3274 92.1396 43.441 92.1476 43.5584 92.1685C43.5576 92.4761 43.5546 92.7144 43.544 92.9272C43.1667 93.2773 42.8473 93.3867 42.4397 93.201C42.0152 93.0204 41.5549 92.9064 41.2253 92.7952C41.0819 92.377 40.9521 92.0665 40.8678 91.7843C40.3489 91.6599 39.9056 91.5407 39.3573 91.6905C39.0812 91.7589 38.7899 91.7761 38.5155 91.7881C37.2913 91.8463 36.0641 92.1429 34.8747 91.8833C33.8861 91.6755 32.8827 91.5421 32.1633 90.9326C31.74 90.57 31.7782 90.1395 32.4095 89.8951C32.7081 89.778 33.0445 89.6636 33.3397 89.6593C34.3219 89.6594 35.3343 89.6365 36.2527 89.7954C37.2847 89.9623 38.3107 90.0471 39.3592 90.0833C40.8923 90.1285 42.3071 90.4604 43.7858 90.6337C44.1133 90.6756 44.3107 90.8402 44.429 91.1122C43.7586 91.5359 43.0742 91.7262 42.2847 91.6267C42.0878 91.5877 41.8381 91.6203 41.5977 91.6223ZM222.259 105.214C222.184 105.026 222.14 104.942 222.117 104.865C222.048 104.508 222.114 104.419 222.507 104.245C222.738 104.149 222.985 104.047 223.188 104.168C223.474 104.32 223.771 104.259 224.106 104.201C224.745 104.108 225.368 104.02 226.007 103.927C226.329 103.887 226.61 103.775 226.882 103.568C227.563 103.057 228.373 102.913 229.239 102.836C229.153 103.043 229.021 103.222 229.016 103.392C229.02 103.53 229.168 103.653 229.292 103.756C229.432 103.854 229.616 103.911 229.786 103.986C229.276 104.264 228.85 104.573 228.231 104.548C228.008 104.545 227.635 104.726 227.521 104.9C227.257 105.258 226.786 105.357 226.429 105.589C226.055 105.826 225.578 105.843 225.137 105.793C224.793 105.756 224.446 105.776 224.266 105.481C224.157 105.303 223.881 105.246 223.568 105.256C223.146 105.27 222.726 105.228 222.259 105.214ZM42.5998 129.672C42.8759 129.604 43.1311 129.527 43.3978 129.49C43.7194 129.45 44.0261 129.484 44.3361 129.405C44.7862 129.299 45.2175 129.254 45.6097 129.388C45.8769 129.476 46.1436 129.438 46.4158 129.357C46.688 129.276 46.9641 129.207 47.2363 129.126C47.5256 129.04 47.8038 129.04 48.0237 129.156C48.3308 129.316 48.6852 129.448 48.5921 129.881C48.3067 129.98 48.0064 130.153 47.698 130.176C46.7086 130.275 45.7077 130.337 44.7106 130.411C44.0219 130.463 43.6246 129.939 42.8963 130.045C42.8074 130.057 42.7049 129.962 42.6309 129.9C42.6402 129.87 42.6381 129.8 42.5998 129.672ZM21.5148 87.2944C21.7785 86.9363 21.4297 86.761 21.3833 86.4815C21.6462 86.431 21.8372 86.3879 22.0358 86.3705C22.2723 86.3558 22.5088 86.341 22.7568 86.3648C23.6484 86.4338 24.5268 86.5208 25.4223 86.6027C25.5737 86.6134 25.7328 86.6497 25.8447 86.7141C25.911 86.7502 25.9417 86.8528 25.9306 86.9399C25.9251 86.9835 25.8005 87.0626 25.7456 87.065C25.3955 87.0718 25.0454 87.0785 24.6877 87.0596C24.3678 87.0433 24.0705 86.9784 23.7778 87.1776C23.8255 87.2751 23.9488 87.378 23.9038 87.4753C23.8174 87.6826 23.6111 87.6744 23.4142 87.6354C22.8025 87.5107 22.2155 87.4066 21.5148 87.2944ZM227.762 101.363C228.469 101.25 229.029 101.138 229.583 101.071C230.188 100.988 230.192 101.001 230.344 101.57C229.59 101.837 228.807 101.945 227.972 102.069C227.9 101.825 227.842 101.633 227.762 101.363ZM38.0027 72.3825C38.3571 72.5142 38.6621 72.6048 38.9577 72.726C39.1909 72.8241 39.4108 72.94 39.6137 73.0611C39.6801 73.0971 39.7014 73.2305 39.6656 73.297C39.6299 73.3636 39.4713 73.4529 39.3824 73.4654C39.057 73.4927 38.7485 73.515 38.4287 73.4987C38.1845 73.4878 37.9607 73.359 38.0773 73.1286C38.1938 72.8983 38.1423 72.7879 37.9262 72.6848C37.8845 72.6693 37.9521 72.5234 38.0027 72.3825ZM233.201 104C233.251 103.859 233.309 103.619 233.408 103.393C233.431 103.345 233.529 103.301 233.597 103.281C233.9 103.177 234.207 103.337 234.34 103.66C234.459 103.932 234.341 104.219 234.097 104.333C233.798 104.45 233.321 104.341 233.201 104ZM259.965 110.846C259.67 110.975 259.389 111.087 259.124 111.194C258.701 110.832 258.718 110.827 258.936 110.566C259.238 110.21 259.633 110.106 260.11 110.09C260.014 110.328 259.657 110.56 259.965 110.846ZM27.7018 96.5956C27.991 96.5092 28.2309 96.3817 28.4032 96.4001C28.8064 96.4474 29.2174 96.5203 29.4833 96.7901C29.5079 96.8107 29.5024 96.8543 29.4892 96.8722C29.4497 96.9259 29.3629 97.0077 29.325 97.005C28.8005 96.9241 28.2063 96.92 27.7018 96.5956ZM44.1425 124.909C44.5453 124.83 44.6984 124.785 44.829 124.787C45.2208 124.796 45.4961 125.035 45.3395 125.194C45.1396 125.393 44.8895 125.3 44.7134 125.269C44.5543 125.233 44.4441 125.112 44.1425 124.909ZM206.06 128.729C205.771 128.815 205.523 128.791 205.464 128.655C205.393 128.481 205.582 128.369 205.737 128.266C205.797 128.221 205.879 128.182 205.947 128.162C206.164 128.083 206.31 128.137 206.377 128.299C206.434 128.491 206.346 128.63 206.06 128.729ZM223.305 119.081C222.978 119.291 222.699 119.472 222.323 119.332C222.24 119.301 222.154 119.201 222.169 119.127C222.184 119.053 222.322 118.956 222.424 118.925C222.73 118.834 223.02 118.873 223.305 119.081ZM27.7998 87.3039C28.2791 86.9233 28.2791 86.9233 28.5944 87.2343C28.303 87.2514 28.0533 87.2841 27.7998 87.3039ZM45.1684 127.662C45.2271 127.672 45.299 127.665 45.3577 127.675C45.3483 127.706 45.3258 127.755 45.3258 127.755C45.2539 127.762 45.1952 127.752 45.1195 127.746C45.1459 127.71 45.159 127.693 45.1684 127.662ZM27.4419 86.7262C27.4211 86.7184 27.3833 86.7158 27.3624 86.708C27.3756 86.6901 27.3811 86.6465 27.4151 86.6364C27.4322 86.6313 27.4739 86.6468 27.4947 86.6545C27.4815 86.6724 27.4683 86.6904 27.4419 86.7262Z" fill="#0D82EC"/>
<path d="M40.0407 111.855C38.9751 111.824 39.1792 111.204 39.217 110.648C38.6997 110.467 38.1851 110.481 37.5989 110.628C36.4096 110.928 35.2254 111.058 34.0573 110.932C33.7361 111.097 33.6783 111.338 33.7187 111.536C33.7783 111.797 33.7945 112.1 34.1017 112.259C34.2969 112.355 34.4582 112.46 34.6534 112.556C35.3187 112.86 35.9368 113.192 36.3984 113.683C36.7822 114.1 37.379 114.299 38.0622 114.29C38.6526 114.282 39.1545 114.411 39.5472 114.671C40.1428 115.052 40.8084 114.923 41.4244 114.627C41.7965 114.446 42.15 114.327 42.549 114.236C43.0161 114.124 43.1683 113.827 42.976 113.494C42.8084 113.18 42.5501 112.936 42.1013 112.861C41.6904 112.788 41.2833 112.728 40.8554 112.66C40.5998 112.61 40.3139 112.584 40.0884 112.512C39.7966 112.403 39.8242 112.185 40.0407 111.855ZM37.1447 111.155C37.328 111.087 37.4867 110.997 37.6776 110.954C37.7457 110.934 37.8729 111.05 37.8712 111.106C37.8695 111.162 37.7564 111.28 37.6713 111.305C37.4671 111.366 37.2646 111.371 37.1447 111.155ZM36.5224 111.243C36.4845 111.241 36.4466 111.238 36.4088 111.235C36.4219 111.217 36.4483 111.182 36.4615 111.164C36.4955 111.154 36.5164 111.161 36.5543 111.164C36.5657 111.202 36.5355 111.225 36.5224 111.243Z" fill="#0D82EC"/>
<path d="M256.973 115.036C257.511 115.225 258.066 115.408 258.608 115.61C258.858 115.703 258.819 116.007 258.57 116.166C258.51 116.212 258.436 116.276 258.364 116.283C257.6 116.33 257.07 116.851 256.406 117.049C256.501 117.678 256.497 117.665 257.105 117.651C257.936 117.64 258.752 117.397 259.575 117.235C260.203 117.103 260.808 116.895 261.526 116.694C261.668 116.736 261.992 116.765 262.131 116.919C262.6 117.435 263.289 117.509 264.074 117.344C264.388 117.279 264.466 117.479 264.735 117.51C264.916 117.372 265.127 117.211 265.292 117.079C265.39 116.602 265.19 116.243 265.062 115.876C264.867 115.347 264.924 115.288 265.636 114.88C265.713 114.829 265.792 114.722 265.79 114.653C265.784 114.571 265.703 114.483 265.619 114.452C265.477 114.411 265.284 114.385 265.169 114.433C264.711 114.639 264.242 114.682 263.754 114.785C263.563 114.828 263.388 114.923 263.212 115.017C262.921 115.16 262.636 115.259 262.287 115.209C262.073 115.176 261.822 115.265 261.572 115.297C260.704 115.431 260.496 115.353 260.126 114.737C260.058 114.632 260.006 114.521 259.93 114.39C259.771 114.354 259.595 114.323 259.415 114.279C259.235 114.235 259.042 114.209 258.803 114.154C258.248 114.529 257.598 114.835 256.925 115.064L256.973 115.036Z" fill="#0D82EC"/>
<path d="M251.802 102.19C251.209 102.004 250.598 102.005 249.949 102.254C249.698 102.343 249.388 102.296 249.128 102.36C248.692 102.448 248.273 102.783 248.228 103.006C248.183 103.229 248.565 103.45 249.044 103.503C249.615 103.555 250.223 103.542 250.926 103.29C252.013 102.896 253.05 102.893 254.119 102.937C254.473 102.943 254.793 102.959 255.163 102.835C255.5 102.72 255.884 102.704 256.232 102.628C256.703 102.529 257.198 102.451 257.658 102.314C257.862 102.253 258.032 102.076 258.251 101.941C258.057 101.664 257.874 101.425 257.676 101.135C257.115 101.428 256.479 101.408 255.865 101.522C255.568 101.583 255.333 101.541 255.07 101.466C254.147 101.169 253.252 101.338 252.388 101.917C252.225 101.994 252.076 102.052 251.802 102.19Z" fill="#0D82EC"/>
<path d="M238.698 105.223C238.604 105.404 238.51 105.586 238.399 105.773C238.284 105.947 238.169 106.121 238.055 106.295C238.402 106.526 238.805 106.448 239.181 106.28C239.54 106.117 239.933 105.944 240.235 105.714C241.141 105.024 242.173 104.632 243.332 104.482C243.814 104.421 244.287 104.266 244.758 104.168C244.915 104.135 245.115 104.061 245.236 104.095C246.151 104.366 246.821 103.817 247.551 103.529C247.64 103.084 247.388 102.921 247 102.925C246.65 102.932 246.266 102.949 245.933 103.076C245.17 103.374 244.455 103.462 243.744 103.255C243 103.617 242.242 103.871 241.419 103.907C240.98 103.927 240.562 103.954 240.188 103.758C240.055 103.686 239.815 103.688 239.584 103.659C239.462 103.933 239.37 104.184 239.237 104.419C239.084 104.716 239.074 105.054 238.659 105.276L238.698 105.223Z" fill="#0D82EC"/>
<path d="M254.865 105.495C254.819 105.341 254.784 105.225 254.75 105.11C254.67 105.092 254.608 105.069 254.536 105.076C253.97 105.105 253.421 105.129 252.867 105.197C252.512 105.247 252.122 105.308 251.839 105.476C251.397 105.734 250.939 105.815 250.457 105.875C250.173 105.918 249.893 105.973 249.625 106.067C248.243 106.592 246.804 106.798 245.372 107.03C244.613 107.159 243.872 107.408 243.145 107.639C242.992 107.685 242.901 107.879 242.741 108.025C243.103 108.182 243.433 108.294 243.784 108.105C244.169 107.906 244.55 107.876 244.951 107.854C245.115 107.847 245.288 107.865 245.437 107.807C246.248 107.481 247.092 107.452 247.931 107.286C248.597 107.157 249.228 106.912 249.903 106.753C250.578 106.593 251.25 106.421 251.925 106.261C252.324 106.17 252.73 105.979 253.105 106.118C253.543 106.281 253.848 105.938 254.242 105.89C254.423 105.878 254.629 105.635 254.865 105.495ZM251.279 106.021L251.322 105.98L251.35 106.013L251.279 106.021Z" fill="#0D82EC"/>
<path d="M71.8492 63.3521C70.9614 63.2958 70.1693 63.0014 69.2365 63.0425C68.6878 63.0666 68.25 62.9039 67.965 62.5699C67.5944 62.1357 67.0827 61.9113 66.354 61.8914C66.038 61.8879 65.7368 61.8102 65.4565 61.7402C64.5908 61.5097 64.4223 61.5042 63.384 61.6884C63.1863 61.9571 63.2097 62.1596 63.53 62.3015C64.146 62.5646 64.7262 62.8943 65.5323 62.8632C65.8615 62.8487 66.1023 62.9724 66.1394 63.2827C66.1785 63.6621 66.6009 63.7735 66.9999 63.6823C67.5861 63.5352 68.1144 63.629 68.6444 63.6663C69.1574 63.7087 69.6381 63.7049 70.1677 63.6166C70.7143 63.5233 71.2613 63.5555 71.8101 63.5314C71.8288 63.4699 71.8475 63.4085 71.8492 63.3521Z" fill="#0D82EC"/>
<path d="M260.787 97.2161C261.622 97.344 262.436 97.4641 263.251 97.5842C263.647 97.857 263.668 98.4236 264.325 98.451C264.725 98.1778 264.785 97.8807 264.852 97.6091C264.934 97.2633 265.037 96.9252 265.253 96.5951C265.466 96.2522 265.317 96.0032 264.861 96.0276C264.203 96.0565 263.516 96.1777 262.86 96.2759C262.432 96.3337 262.038 96.5633 261.574 96.562C261.148 96.5634 260.916 96.8422 260.787 97.2161Z" fill="#0D82EC"/>
<path d="M35.1662 128.175C35.2182 128.411 35.2433 128.558 35.2892 128.711C35.3471 129.029 35.6449 129.22 36.0137 129.152C36.6624 129.028 36.9904 129.195 37.2057 129.606C37.2533 129.704 37.4031 129.771 37.5264 129.874C37.7987 129.792 38.0709 129.711 38.3261 129.635C38.8904 128.111 38.8904 128.111 38.5998 127.262C38.0221 127.127 37.4857 127.441 37.0153 127.665C36.4296 127.938 35.8813 128.088 35.1662 128.175Z" fill="#0D82EC"/>
<path d="M45.1988 62.5361C45.1946 62.3976 45.0767 62.2512 45.2919 62.1031C45.4166 62.024 45.5961 61.9425 45.6373 61.8324C45.6824 61.7351 45.642 61.5376 45.5624 61.5194C44.7006 61.3018 43.8294 61.1148 42.8272 61.3582C42.7932 61.3683 42.7383 61.3707 42.7081 61.3937C42.5478 61.5394 42.3326 61.6875 42.2518 61.8513C42.1616 62.0459 42.2871 62.218 42.4994 62.3083C42.6661 62.3702 42.8482 62.4835 43.009 62.4635C43.6313 62.3754 44.1486 62.5563 44.7203 62.6091C44.8547 62.6248 45.038 62.5561 45.195 62.5232L45.1988 62.5361Z" fill="#0D82EC"/>
<path d="M279.603 115.362C279.284 115.471 279.042 115.529 278.853 115.642C278.634 115.777 278.443 115.82 278.178 115.801C277.733 115.739 277.346 115.994 276.961 116.193C276.64 116.359 276.626 116.684 276.908 116.823C277.162 116.929 277.403 117.053 277.773 116.928C277.991 116.849 278.244 116.829 278.481 116.815C279.145 116.742 279.347 116.612 279.538 116.136C279.583 116.038 279.628 115.941 279.639 115.854C279.656 115.723 279.621 115.608 279.603 115.362Z" fill="#0D82EC"/>
<path d="M247.529 119.965C247.315 119.931 247.182 119.859 247.118 119.892C246.681 120.106 246.219 120.049 245.769 120.155C245.336 120.257 244.897 120.276 244.47 120.334C243.78 120.442 243.104 120.602 242.654 121.141C242.937 121.406 243.368 121.235 243.727 121.198C244.125 121.163 244.512 121.034 244.903 120.917C245.584 120.713 246.257 120.485 246.943 120.363C247.125 120.351 247.3 120.131 247.529 119.965Z" fill="#0D82EC"/>
<path d="M235.317 92.7788C235.22 92.6401 235.201 92.576 235.155 92.5476C234.852 92.4007 234.552 92.2666 234.169 92.1015C234.13 92.2808 234.089 92.3909 234.069 92.5088C233.994 92.8803 233.751 93.2461 233.351 93.3937C232.967 93.5362 232.877 93.7308 232.781 93.9689C232.753 94.0611 232.704 94.1456 232.623 94.3094C232.826 94.3048 233.006 94.3489 233.176 94.2981C233.745 94.1561 234.221 93.8882 234.612 93.5202C234.851 93.2671 235.077 93.0319 235.317 92.7788Z" fill="#0D82EC"/>
<path d="M233.535 70.9858C233.734 71.094 233.774 71.1659 233.846 71.1584C234.878 71.1997 235.989 70.9515 236.855 70.4976C237.078 70.3751 237.114 70.1266 236.936 70.0262C236.576 69.8124 236.194 69.7729 235.723 69.9972C235.283 70.1985 234.831 70.3613 234.391 70.5626C234.143 70.6645 233.907 70.8048 233.535 70.9858Z" fill="#0D82EC"/>
<path d="M236.318 80.7442C235.066 81.3278 235.066 81.3278 234.425 82.0361C234.577 82.1723 234.746 82.3035 234.897 82.4398C234.834 82.7241 234.767 82.9957 234.694 83.3108C234.914 83.3011 235.061 83.2989 235.201 83.2711C235.757 83.147 235.949 82.922 235.685 82.5957C235.392 82.2361 235.435 81.944 235.888 81.5992C236.181 81.4 236.327 81.1467 236.318 80.7442Z" fill="#0D82EC"/>
<path d="M251.916 119.144C251.364 119.155 250.817 119.123 250.276 119.173C249.773 119.225 249.275 119.36 248.699 119.476C248.741 119.617 248.732 119.774 248.834 119.869C248.912 119.943 249.124 120.034 249.223 119.99C249.735 119.781 250.14 119.898 250.576 119.991C250.835 120.054 251.077 119.995 251.361 119.827C251.695 119.643 251.944 119.485 251.916 119.144Z" fill="#0D82EC"/>
<path d="M186.021 135.969C187.567 136.304 187.567 136.304 188.648 136.079C189.416 135.92 190.154 135.909 190.891 136.08C191.085 135.924 191.297 135.763 191.491 135.607C191.459 135.561 191.443 135.51 191.426 135.515C190.967 135.526 190.497 135.443 190.051 135.562C189.243 135.776 188.458 135.814 187.688 135.779C187.162 135.754 186.681 135.884 186.021 135.969Z" fill="#0D82EC"/>
<path d="M34.9588 106.876C34.9107 107.212 35.0328 107.497 35.4212 107.618C36.198 107.861 36.9335 108.215 37.8587 108.148C37.9306 108.14 37.991 108.094 38.1194 108.028C37.4898 107.657 36.736 107.491 36.1009 107.164C35.7483 106.976 35.362 106.924 34.9362 106.925L34.9588 106.876Z" fill="#0D82EC"/>
<path d="M56.6811 64.9332C57.9015 65.421 58.3048 65.4683 59.3087 65.1685C58.8471 64.6777 58.2481 64.4095 57.4437 64.3842C57.2374 64.3759 57.211 64.4118 56.6811 64.9332Z" fill="#0D82EC"/>
<path d="M270.252 117.805C269.827 117.373 269.174 117.61 268.61 117.582C268.401 117.813 268.222 118.02 268.043 118.227C268.058 118.278 268.078 118.342 268.123 118.371C268.508 118.605 268.987 118.532 269.44 118.438C269.788 118.362 270.11 118.197 270.252 117.805Z" fill="#0D82EC"/>
<path d="M267.127 107.897C267.443 107.9 267.674 107.929 267.89 107.907C268.38 107.872 268.621 107.688 268.737 107.332C268.765 107.24 268.827 107.138 268.801 107.048C268.775 106.902 268.747 106.743 268.644 106.647C268.538 106.539 268.054 106.656 267.876 106.807C267.542 107.116 267.413 107.49 267.127 107.897Z" fill="#0D82EC"/>
<path d="M34.9328 106.912C34.5504 106.873 34.3981 106.611 34.1458 106.449C33.6451 106.137 33.1441 106.259 32.5839 106.803C33.0297 107.117 33.581 107.288 34.2148 107.238C34.4513 107.224 34.7023 107.009 34.9422 106.881L34.9328 106.912Z" fill="#0D82EC"/>
<path d="M170.876 137.502C171.563 137.632 171.997 137.656 172.43 137.555C173.394 137.309 174.396 137.499 175.53 136.951C174.803 137 174.231 136.947 173.7 137.092C172.842 137.32 171.98 137.102 170.876 137.502Z" fill="#0D82EC"/>
<path d="M239.73 108.617C240.157 108.741 240.541 108.85 241.004 108.725C241.141 108.685 241.312 108.577 241.344 108.498C241.386 108.388 241.323 108.239 241.228 108.17C240.803 107.863 240.124 108.01 239.722 108.465C239.692 108.488 239.721 108.522 239.73 108.617Z" fill="#0D82EC"/>
<path d="M229.198 123.427C228.54 123.581 227.902 123.744 227.278 123.888C227.149 124.136 227.259 124.257 227.492 124.23C227.961 124.187 228.424 124.189 228.868 124C229.163 123.87 229.337 123.707 229.198 123.427Z" fill="#0D82EC"/>
<path d="M256.933 115.09C256.958 114.803 256.605 114.922 256.451 114.842C256.297 114.763 256.178 114.673 256.02 114.58C255.887 114.69 255.796 114.759 255.722 114.822C255.692 114.845 255.662 114.868 255.632 114.891C255.602 114.914 255.566 114.981 255.583 114.976C255.89 115.136 255.454 115.475 255.71 115.65C255.994 115.733 256.246 115.644 256.47 115.465C256.651 115.327 256.812 115.182 256.989 115.031L256.933 115.09Z" fill="#0D82EC"/>
<path d="M45.4544 132.284C45.2303 132.589 44.9151 132.836 44.9921 133.219C45.3971 133.209 45.648 132.995 45.8743 132.76C45.8509 132.557 45.9938 132.291 45.4544 132.284Z" fill="#0D82EC"/>
<path d="M261.991 93.0566C261.979 92.7669 262.071 92.5159 261.959 92.4515C261.657 92.2482 261.273 92.2651 260.894 92.546C261.2 92.8878 261.2 92.8878 261.991 93.0566Z" fill="#0D82EC"/>
<path d="M234.807 76.0543C234.202 76.2628 234.202 76.2628 233.964 76.7667C234.686 76.7045 234.751 76.6713 235.277 76.2629C235.128 76.196 234.978 76.129 234.807 76.0543Z" fill="#0D82EC"/>
<path d="M221.441 127.363C221.384 127.296 221.323 127.217 221.262 127.137C220.871 127.254 220.48 127.371 220.105 127.483C220.086 127.852 220.205 127.941 220.564 127.778C220.859 127.649 221.146 127.493 221.437 127.35L221.441 127.363Z" fill="#0D82EC"/>
<path d="M53.5467 68.0899C52.8857 67.9244 52.2158 67.915 51.3672 68.2382C52.1889 68.3836 52.8772 68.206 53.5467 68.0899Z" fill="#0D82EC"/>
<path d="M39.7049 108.435C39.853 108.558 40.001 108.682 40.1792 108.782C40.4524 108.952 40.7361 108.909 41.0436 108.636C40.6603 108.345 40.2192 108.295 39.6747 108.458L39.7049 108.435Z" fill="#0D82EC"/>
<path d="M234.824 76.0487C235.342 75.9219 235.755 75.631 236.169 75.34C235.771 75.124 235.385 75.1973 235.117 75.5423C234.999 75.7034 234.905 75.885 234.824 76.0487Z" fill="#0D82EC"/>
<path d="M229.708 81.7537C230.107 81.6625 230.586 81.7148 230.823 81.2673C229.841 81.2674 229.777 81.3006 229.708 81.7537Z" fill="#0D82EC"/>
<path d="M168.896 137.576C169.183 137.853 169.474 137.71 169.744 137.686C170.015 137.661 170.272 137.654 170.547 137.641C170.224 137.431 170.018 137.422 168.896 137.576Z" fill="#0D82EC"/>
<path d="M162.042 138.267C161.785 138.274 161.514 138.299 161.257 138.306C161.22 138.554 161.46 138.552 161.611 138.563C161.829 138.61 162.083 138.59 162.042 138.267Z" fill="#0D82EC"/>
<path d="M222.837 90.5811C222.534 90.5599 222.269 90.5413 222.17 90.7665C222.138 90.8458 222.265 90.9613 222.33 91.0537C222.453 91.0309 222.562 91.0261 222.589 90.9903C222.677 90.8522 222.749 90.7192 222.837 90.5811Z" fill="#0D82EC"/>
<path d="M176.038 136.98C176.235 137.019 176.364 137.078 176.491 137.068C176.584 137.069 176.684 136.969 176.774 136.9C176.791 136.895 176.772 136.831 176.751 136.823C176.651 136.797 176.547 136.759 176.445 136.789C176.325 136.825 176.235 136.894 176.038 136.98Z" fill="#0D82EC"/>
<path d="M34.0692 118.109C34.2934 117.804 34.4384 117.607 34.6191 117.344C34.0615 117.524 34.0615 117.524 34.0692 118.109Z" fill="#0D82EC"/>
<path d="M33.6617 117.364C33.7863 117.285 33.9109 117.206 34.0318 117.114C34.062 117.091 34.039 117.014 34.0445 116.971C33.9765 116.991 33.8629 116.983 33.8365 117.019C33.7744 117.121 33.737 117.244 33.6957 117.354L33.6617 117.364Z" fill="#0D82EC"/>
<path d="M242.057 121.124C241.889 121.244 241.764 121.323 241.613 121.438C241.765 121.574 241.948 121.506 242.078 121.383C242.118 121.329 242.066 121.219 242.057 121.124Z" fill="#0D82EC"/>
<path d="M73.0965 63.8038C73.2062 63.799 73.3159 63.7941 73.4219 63.7765C73.4065 63.7252 73.4385 63.6459 73.3929 63.6176C73.3474 63.5893 73.2339 63.5814 73.1867 63.6094C73.1224 63.6426 73.1284 63.7245 73.0965 63.8038Z" fill="#0D82EC"/>
<path d="M6.6932 86.9976C6.43798 87.0738 6.18276 87.15 5.84246 87.2516C6.30438 87.3091 6.30437 87.3091 6.65151 86.9821L6.6932 86.9976Z" fill="#0D82EC"/>
<path d="M255.311 105.375C255.383 105.368 255.451 105.347 255.536 105.322C255.536 105.322 255.542 105.279 255.534 105.253C255.462 105.261 255.407 105.263 255.339 105.283C255.326 105.301 255.32 105.345 255.311 105.375Z" fill="#0D82EC"/>
<path d="M237.332 115.48C237.438 115.462 237.544 115.444 237.65 115.427C237.684 115.416 237.693 115.386 237.724 115.363C237.678 115.334 237.65 115.301 237.595 115.304C237.485 115.308 237.375 115.313 237.269 115.331L237.3 115.308C237.319 115.372 237.342 115.449 237.361 115.513L237.332 115.48Z" fill="#0D82EC"/>
<path d="M188.938 134.875C189.023 134.85 189.095 134.842 189.18 134.817C189.18 134.817 189.176 134.804 189.189 134.786C189.104 134.811 189.036 134.832 188.947 134.844C188.93 134.849 188.934 134.862 188.938 134.875Z" fill="#0D82EC"/>
<path d="M239.968 121.454C240 121.5 240.049 121.542 240.082 121.588C240.08 121.519 240.078 121.449 240.062 121.398C240.058 121.385 240.004 121.388 239.966 121.385C239.97 121.398 239.96 121.429 239.968 121.454Z" fill="#0D82EC"/>
<path d="M232.984 75.2855C232.94 75.3262 232.893 75.3542 232.85 75.395C232.888 75.3976 232.929 75.4129 232.963 75.4028C233.011 75.3748 233.054 75.334 233.101 75.306C233.06 75.2907 233.022 75.2881 232.984 75.2855Z" fill="#0D82EC"/>
<path d="M233.183 80.7303C233.188 80.6868 233.22 80.6075 233.199 80.5998C233.154 80.5715 233.065 80.5841 233.006 80.5737C233.004 80.63 232.969 80.6965 232.997 80.7299C233.022 80.7504 233.124 80.7199 233.183 80.7303Z" fill="#0D82EC"/>
<path d="M232.219 107.353C232.332 107.361 232.425 107.361 232.522 107.374C232.523 107.318 232.555 107.238 232.51 107.21C232.481 107.177 232.371 107.182 232.303 107.202C232.269 107.212 232.254 107.286 232.219 107.353Z" fill="#0D82EC"/>
<path d="M27.8688 89.3364C27.8063 89.3133 27.7476 89.303 27.672 89.2978C27.6511 89.2901 27.6039 89.3181 27.5699 89.3282C27.6115 89.3436 27.6438 89.3896 27.6816 89.3922C27.7535 89.3847 27.8139 89.3388 27.882 89.3185L27.8688 89.3364Z" fill="#0D82EC"/>
<path d="M231.867 82.8414C231.795 82.849 231.736 82.8387 231.668 82.859C231.651 82.8641 231.629 82.9126 231.615 82.9304C231.687 82.9228 231.746 82.9331 231.818 82.9255C231.835 82.9205 231.857 82.872 231.867 82.8414Z" fill="#0D82EC"/>
<path d="M53.4156 62.0657C53.4174 62.0096 53.4306 61.9917 53.4059 61.9713C53.4021 61.9585 53.3511 61.9738 53.3341 61.9788C53.3757 61.9942 53.3833 62.0197 53.4156 62.0657Z" fill="#0D82EC"/>
<path d="M166.799 137.811C166.837 137.814 166.878 137.829 166.895 137.824C166.922 137.788 166.931 137.758 166.94 137.727C166.906 137.737 166.868 137.734 166.834 137.745C166.8 137.755 166.812 137.793 166.799 137.811Z" fill="#0D82EC"/>
<path d="M239.963 116.161C240.038 116.166 240.093 116.163 240.165 116.156C240.182 116.151 240.205 116.102 240.235 116.079C240.159 116.074 240.101 116.064 240.029 116.072C240.015 116.089 239.993 116.138 239.963 116.161Z" fill="#0D82EC"/>
<path d="M240.685 121.435C240.725 121.382 240.747 121.333 240.783 121.267C240.77 121.285 240.744 121.32 240.73 121.338C240.721 121.369 240.712 121.399 240.685 121.435Z" fill="#0D82EC"/>
<path d="M266.159 118.928C266.176 118.923 266.214 118.925 266.231 118.92C266.206 118.9 266.182 118.88 266.157 118.86C266.165 118.885 266.152 118.903 266.159 118.928Z" fill="#0D82EC"/>
<path d="M40.3833 62.8548L40.3437 62.7842L40.4096 62.8195L40.3833 62.8548Z" fill="#0D82EC"/>
<path d="M40.4098 62.8202C40.4684 62.8304 40.527 62.8405 40.5686 62.8557C40.5138 62.8583 40.4419 62.8659 40.3833 62.8558L40.4098 62.8202Z" fill="#0D82EC"/>
<path d="M45.2295 62.5129C45.2709 62.5282 45.3162 62.5562 45.3576 62.5715C45.35 62.5461 45.3424 62.5207 45.3217 62.513C45.284 62.5104 45.2502 62.5205 45.2163 62.5306L45.2295 62.5129Z" fill="#0D82EC"/>
<path d="M4.13994 84.7134L4.08726 84.6604L4.1324 84.6882L4.13994 84.7134Z" fill="#0D82EC"/>
<path d="M5.1517 87.2327C5.13162 87.2257 5.11513 87.2306 5.09505 87.2235C5.11513 87.2306 5.13162 87.2257 5.1517 87.2327Z" fill="#0D82EC"/>
<path d="M5.16924 87.2294C5.19003 87.2369 5.22406 87.2268 5.24484 87.2343C5.20704 87.2318 5.18626 87.2243 5.16924 87.2294Z" fill="#0D82EC"/>
<path d="M39.3928 108.317L39.4189 108.283L39.3928 108.317Z" fill="#0D82EC"/>
<path d="M39.6783 108.47C39.5873 108.414 39.4831 108.375 39.3921 108.319L39.4184 108.283C39.5095 108.339 39.6137 108.378 39.7047 108.435L39.6783 108.47Z" fill="#0D82EC"/>
<path d="M33.6953 117.354C33.6821 117.372 33.6556 117.408 33.6424 117.425C33.6556 117.408 33.6689 117.39 33.6613 117.364L33.6953 117.354Z" fill="#0D82EC"/>
<path d="M214.868 72.1448C214.881 72.1269 214.894 72.1089 214.907 72.091C214.911 72.1038 214.898 72.1218 214.902 72.1346L214.868 72.1448Z" fill="#0D82EC"/>
<path d="M40.4814 132.26L40.5698 132.247L40.5378 132.202L40.4814 132.26Z" fill="#0D82EC"/>
<path d="M52.3059 131.956C52.2945 131.918 52.2831 131.88 52.2716 131.841C52.2754 131.854 52.2622 131.872 52.266 131.885C52.2907 131.905 52.3115 131.913 52.3361 131.933L52.3059 131.956Z" fill="#0D82EC"/>
<path d="M51.7462 132.501L51.714 132.455L51.7556 132.47L51.7462 132.501Z" fill="#0D82EC"/>
<path d="M43.8961 88.2115L43.9411 88.2395L43.883 88.2292L43.8961 88.2115Z" fill="#0D82EC"/>
<path d="M242.468 109.657C242.536 109.637 242.587 109.622 242.659 109.614C242.638 109.606 242.6 109.604 242.6 109.604C242.57 109.627 242.54 109.65 242.51 109.673L242.468 109.657Z" fill="#0D82EC"/>
<path d="M265.171 108.173C265.194 108.124 265.216 108.076 265.239 108.027C265.301 108.05 265.347 108.079 265.392 108.107L265.405 108.089C265.32 108.114 265.235 108.14 265.15 108.165L265.171 108.173Z" fill="#0D82EC"/>
<path d="M227.572 119.847L227.517 119.849L227.529 119.888L227.572 119.847Z" fill="#0D82EC"/>
<path d="M255.696 112.497C255.72 112.518 255.758 112.52 255.783 112.541C255.749 112.551 255.732 112.556 255.698 112.566C255.711 112.548 255.707 112.535 255.696 112.497Z" fill="#0D82EC"/>
<path d="M240.702 121.431C240.689 121.448 240.676 121.466 240.666 121.497C240.676 121.466 240.672 121.454 240.702 121.431Z" fill="#0D82EC"/>
<path d="M221.433 127.338C221.454 127.346 221.475 127.353 221.512 127.356C221.495 127.361 221.475 127.353 221.458 127.358L221.433 127.338Z" fill="#0D82EC"/>
<path d="M41.5969 91.6216C41.5004 91.6087 41.4171 91.578 41.3244 91.5779C41.3036 91.5702 41.2546 91.6544 41.2319 91.7028C41.2528 91.7105 41.2982 91.7386 41.3152 91.7335C41.4135 91.6903 41.5118 91.647 41.6101 91.6038L41.5969 91.6216Z" fill="#0D82EC"/>
<path d="M22.5886 87.0436C22.8063 87.0902 23.0071 87.1419 23.221 87.1757C23.2419 87.1835 23.3304 87.0454 23.4397 86.9151C23.0709 86.9833 22.8251 87.0288 22.5622 87.0794L22.5886 87.0436Z" fill="#0D82EC"/>
<path d="M22.5619 87.0786C22.5203 87.0634 22.4787 87.0482 22.4371 87.033C22.4579 87.0406 22.4655 87.0659 22.4863 87.0735C22.5241 87.076 22.5544 87.0532 22.5884 87.043L22.5619 87.0786Z" fill="#0D82EC"/>
</g>
<defs>
<clipPath id="clip0_431_1017">
<rect width="255.252" height="120.613" fill="white" transform="matrix(-0.958199 0.286101 0.286101 0.958199 245.418 0.868164)"/>
</clipPath>
</defs>
</svg>
