<svg width="113" height="125" viewBox="0 0 113 125" fill="none" xmlns="http://www.w3.org/2000/svg">
<path fill-rule="evenodd" clip-rule="evenodd" d="M98.9447 13H13.7887L14.4535 16.5519C22.1674 57.7666 49.7436 90.6078 93.2465 108.768L100 111.588L97.1686 104.839C89.2808 86.0391 84.3854 68.9724 83.6124 54.2359C82.8425 39.5576 86.1634 27.3834 94.508 17.9927L98.9447 13ZM86.1471 19C79.4004 29.0137 76.9146 41.0907 77.6206 54.5502C78.3449 68.3576 82.4285 83.7649 88.8378 100.244C52.1424 82.896 28.7973 54.2528 21.0723 19H86.1471Z" fill="white"/>
<path fill-rule="evenodd" clip-rule="evenodd" d="M110.803 7.67357C108.706 3.00403 104.064 0 98.9446 0H13.7887C9.92209 0 6.25618 1.72116 3.78638 4.69612C1.31657 7.67107 0.299202 11.5911 1.01054 15.3916L1.67533 18.9435C10.2826 64.9309 41.1506 101.108 88.2384 120.765L94.9919 123.584C99.8601 125.617 105.474 124.505 109.201 120.772C112.927 117.038 114.029 111.423 111.988 106.558L109.156 99.8098C101.533 81.6403 97.2555 66.1551 96.5945 53.555C95.9501 41.268 98.7516 32.7882 104.226 26.628L108.662 21.6352C112.063 17.8088 112.901 12.3431 110.803 7.67357ZM82.7761 103.962C82.2691 103.707 81.7646 103.45 81.2625 103.19C79.0256 102.034 76.8386 100.835 74.7021 99.5938C44.8931 82.2763 24.9252 56.7784 16.6083 26C16.0987 24.1144 15.6329 22.2089 15.2113 20.2843C14.9404 19.048 14.6878 17.8038 14.4534 16.5519L13.7887 13H98.9446L94.508 17.9928C93.2705 19.3853 92.1436 20.8391 91.124 22.3532C90.33 23.5324 89.6011 24.7481 88.936 26C84.696 33.9804 83.0456 43.4295 83.6124 54.2359C84.125 64.0082 86.4504 74.8052 90.2591 86.4529C90.9303 88.5056 91.6476 90.5847 92.4092 92.6893C92.6263 93.2894 92.8471 93.8916 93.0714 94.4958C93.5106 95.679 93.9635 96.8702 94.4298 98.069C94.9479 99.4011 95.4824 100.743 96.033 102.094C96.4043 103.005 96.7829 103.92 97.1686 104.839L100 111.588L93.2465 108.768C92.3412 108.391 91.4428 108.006 90.5514 107.616C89.1072 106.983 87.6811 106.334 86.2735 105.668C85.0948 105.111 83.929 104.542 82.7761 103.962ZM88.8378 100.244C87.5765 97.001 86.4052 93.7995 85.332 90.6436C84.3668 87.8057 83.4809 85.0046 82.6799 82.2433C79.8452 72.4713 78.0742 63.197 77.6206 54.5502C77.1978 46.4887 77.9199 38.9233 80.0167 32C80.6401 29.942 81.3848 27.9407 82.2571 26C83.3498 23.5691 84.6425 21.2332 86.1471 19H21.0723C21.5902 21.3635 22.1783 23.6973 22.836 26C23.4142 28.0244 24.0461 30.0247 24.7312 32C32.9595 55.7211 48.8703 75.835 71.6586 90.68C74.2197 92.3484 76.8677 93.9503 79.6015 95.4832C82.579 97.1529 85.6583 98.7408 88.8378 100.244ZM38.6041 32C44.464 46.6609 53.8032 59.7329 66.5329 70.6536C65.5523 65.4148 64.9025 60.265 64.6385 55.2312C64.2233 47.3156 64.7577 39.492 66.5537 32H38.6041Z" fill="#FF9700"/>
<path fill-rule="evenodd" clip-rule="evenodd" d="M98.9447 13H13.7887L14.4535 16.5519C22.1674 57.7666 49.7436 90.6078 93.2465 108.768L100 111.588L97.1686 104.839C89.2808 86.0391 84.3854 68.9724 83.6124 54.2359C82.8425 39.5576 86.1634 27.3834 94.508 17.9927L98.9447 13ZM86.1471 19C79.4004 29.0137 76.9146 41.0907 77.6206 54.5502C78.3449 68.3576 82.4285 83.7649 88.8378 100.244C52.1424 82.896 28.7973 54.2528 21.0723 19H86.1471Z" fill="white"/>
<path fill-rule="evenodd" clip-rule="evenodd" d="M106.242 9.7222C104.952 6.84863 102.095 5 98.9447 5H13.7887C11.4092 5 9.15331 6.05918 7.63342 7.88992C6.11355 9.72066 5.48747 12.133 5.92522 14.4718L6.59001 18.0237C14.8537 62.1754 44.4556 97.0694 90.1646 116.151L96.9181 118.97C99.9139 120.221 103.368 119.537 105.662 117.24C107.955 114.942 108.633 111.486 107.377 108.493L104.546 101.744C96.8206 83.3322 92.3054 67.2387 91.6014 53.8169C90.9087 40.6101 93.91 30.7094 100.488 23.3067L104.925 18.314C107.017 15.9593 107.533 12.5958 106.242 9.7222ZM98.9447 13L94.508 17.9928C94.3797 18.1371 94.2527 18.2821 94.1267 18.4278C93.4043 19.2636 92.7208 20.1211 92.0757 21C91.7487 21.4456 91.4315 21.8966 91.124 22.3532C85.2684 31.0491 82.9567 41.7343 83.6124 54.2359C84.2915 67.1831 88.1528 81.929 94.4298 98.069C94.8195 99.071 95.2185 100.078 95.6266 101.091C95.7611 101.425 95.8966 101.759 96.033 102.094C96.1461 102.371 96.2599 102.649 96.3744 102.927C96.6356 103.563 96.9004 104.2 97.1686 104.839L100 111.588L93.2465 108.768C92.5554 108.48 91.8684 108.188 91.1853 107.892C90.9736 107.8 90.7623 107.708 90.5514 107.616C90.185 107.455 89.8199 107.294 89.4559 107.131C88.3849 106.652 87.3241 106.165 86.2735 105.668C48.309 87.7173 23.6885 57.9144 15.3703 21C15.3166 20.7617 15.2636 20.5232 15.2113 20.2843C14.9404 19.048 14.6878 17.8038 14.4535 16.5519L13.7887 13H98.9447ZM86.1472 19C85.7039 19.6578 85.2791 20.3246 84.8724 21C83.71 22.9304 82.6953 24.9319 81.8212 27C78.3455 35.224 77.0936 44.5018 77.6207 54.5502C78.1814 65.2405 80.7559 76.8897 84.8644 89.2529C85.7694 91.9762 86.7488 94.7341 87.7975 97.524C88.1371 98.4273 88.4839 99.334 88.8378 100.244C87.9525 99.8254 87.0749 99.4003 86.2052 98.9686C83.4863 97.6194 80.8437 96.2065 78.2783 94.732C50.2607 78.6288 31.4539 55.1786 23.1266 27C22.5423 25.023 22.0096 23.0227 21.529 21C21.3711 20.3357 21.2189 19.6691 21.0723 19H86.1472ZM73.241 27H31.497C38.6932 49.4678 53.2135 68.6887 74.5833 83.0252C71.8518 73.3069 70.1003 63.9049 69.6316 54.9692C69.1182 45.1798 70.1397 35.7226 73.241 27Z" fill="#101D33"/>
</svg>
