<svg width="455" height="86" viewBox="0 0 455 86" fill="none" xmlns="http://www.w3.org/2000/svg">
<g clip-path="url(#clip0_1_58)">
<path d="M304.288 62.0337C309.135 67.4323 307.991 75.9097 303.713 86C315.196 81.2559 322.412 73.8309 324.432 63.149L304.288 62.0337Z" fill="#FF9700"/>
<path d="M163.582 62.0337C158.729 67.4323 159.879 75.9097 164.157 86C152.674 81.2559 145.458 73.8309 143.438 63.149L163.582 62.0337Z" fill="#FF9700"/>
<path d="M452.051 40.3348C453.307 38.3712 453.945 36.0358 453.94 33.3653C453.924 18.9709 440.632 10.3102 427.503 9.18436C426.797 9.12677 426.069 9.09535 425.341 9.09535C420.82 9.09535 416.332 10.2316 412.465 12.2633C410.392 9.80748 407.344 8.19995 403.704 7.88578C394.722 7.10558 385.628 6.3725 376.672 5.70226C376.308 5.67085 375.939 5.66038 375.59 5.66038C374.383 5.66038 373.217 5.81746 372.13 6.12116C370.822 5.5347 369.393 5.1734 367.884 5.06868C365.226 4.88541 363.891 4.7964 361.228 4.6236C360.837 4.59742 360.452 4.58695 360.078 4.58695C355.758 4.58695 352.176 6.36727 349.787 9.59803C347.503 5.7651 343.763 3.55541 338.99 3.29359C336.205 3.14174 334.807 3.06844 332.017 2.93229C331.795 2.92182 331.574 2.91659 331.368 2.91659C327.354 2.91659 323.767 4.75451 321.536 7.96432C321.246 8.37798 320.988 8.81259 320.761 9.25767C318.909 5.00061 314.79 2.13115 309.642 1.93217C307.152 1.83268 305.907 1.78556 303.428 1.70178C303.238 1.69131 303.054 1.69131 302.869 1.69131C299.151 1.69131 295.901 3.16792 293.665 5.5923C288.76 2.09973 282.657 0.141378 276.633 0.00523624C276.412 0.00523624 276.19 0 275.969 0C270.963 0 266.005 1.26717 261.769 3.5397C259.649 1.66512 256.901 0.607404 253.931 0.575986C251.267 0.549805 249.928 0.539333 247.264 0.518388H247.169C243.862 0.518388 240.908 1.57611 238.614 3.47686C236.108 1.34571 233.038 0.48697 230.348 0.48697C228.587 0.492207 227.706 0.492207 225.944 0.497443C223.249 0.507915 220.163 1.3876 217.647 3.55017C215.374 1.6756 212.467 0.649294 209.186 0.649294H209.028C206.264 0.685947 204.877 0.706892 202.108 0.754018C200.768 0.774963 199.465 1.01059 198.247 1.43997C197.044 1.08914 195.741 0.900633 194.375 0.900633C194.27 0.900633 194.17 0.905869 194.043 0.905869C185.081 1.10485 175.972 1.36142 166.958 1.66512C162.981 1.8065 159.621 3.52923 157.437 6.25731C153.534 3.92718 148.808 2.71237 143.512 2.71237C142.589 2.71237 141.64 2.74903 140.69 2.82233C135.479 3.07891 130.209 3.35119 125.035 3.64966C122.783 3.78056 120.752 4.39321 119.022 5.41427C117.434 4.69167 115.641 4.29372 113.721 4.29372C113.41 4.29372 113.104 4.30419 112.772 4.32513C103.784 4.90112 94.6849 5.53994 85.7285 6.22065C84.0776 6.34632 82.5532 6.73904 81.1818 7.35168C80.1163 7.04798 78.9928 6.89089 77.843 6.89089C77.5054 6.89089 77.1678 6.90136 76.8197 6.93278C74.1613 7.1527 72.8321 7.25743 70.1737 7.48259C66.8612 7.76534 63.9654 9.10582 61.7975 11.2422C59.4978 9.6085 56.8499 8.9435 54.5397 8.9435C54.1282 8.9435 53.7063 8.96444 53.3001 9.00633C51.5489 9.17389 50.6734 9.25243 48.9116 9.42523C47.5033 9.55614 43.8427 10.2054 40.8889 13.2267C38.816 11.813 36.3211 11.0485 33.5888 11.0485C33.0825 11.0485 32.5708 11.0746 32.0539 11.127C29.3006 11.415 27.9239 11.5616 25.1705 11.8653C24.7275 11.9124 22.4646 12.2109 17.8388 12.8393L0 16.4784L16.4938 32.6322L16.652 33.1402C19.1364 40.9945 23.6936 55.4151 26.389 63.9711C27.6918 68.3486 31.8429 72.7523 38.2094 72.7523C38.6472 72.7523 39.085 72.7314 39.5228 72.6895C41.7065 72.4643 42.7931 72.3544 44.9768 72.1344C48.4053 71.7941 51.032 70.3175 52.9203 68.4324C54.8087 69.7467 57.2086 70.6316 60.1202 70.6316C60.5264 70.6316 60.9378 70.6107 61.3387 70.574C63.4221 70.3855 64.4665 70.2913 66.55 70.108C71.2444 69.6943 74.6254 66.9296 76.461 63.7407C76.5032 63.7983 76.5401 63.8507 76.5823 63.8978C77.9274 65.5891 80.9655 68.4272 86.2613 68.4272C86.6358 68.4272 87.0208 68.4115 87.3848 68.3853C96.6365 67.6836 106.004 67.0291 115.208 66.4374C117.239 66.3065 119.096 65.7881 120.705 64.9294C122.16 65.5054 123.743 65.7986 125.399 65.7986C125.673 65.7986 125.963 65.7934 126.264 65.7776C128.722 65.6363 129.956 65.5682 132.414 65.4373C135.748 65.2645 138.644 63.9973 140.753 61.9499C143.106 63.7146 145.87 64.6047 149.024 64.6047C149.256 64.6047 149.494 64.5995 149.752 64.589C152.685 64.4581 154.156 64.3953 157.084 64.2748C158.93 64.1963 160.676 63.7407 162.226 62.9448C163.593 63.4999 165.238 63.8821 167.185 63.8821C167.359 63.8821 167.533 63.8769 167.696 63.8717C176.959 63.5575 186.337 63.2957 195.567 63.0967C199.534 63.0129 202.899 61.3687 205.109 58.7087C207.23 61.086 210.373 62.8035 214.398 62.8035H214.414L214.54 62.7982C216.729 62.7773 217.826 62.7668 220.015 62.7511C223.37 62.7249 226.134 61.5415 228.217 59.7926C230.306 61.5311 233.075 62.6883 236.435 62.6935C238.524 62.6935 239.574 62.6987 241.71 62.704C248.25 62.704 252.465 58.1746 253.757 53.6662C253.778 53.6034 253.794 53.5353 253.815 53.4672C255.102 55.1219 256.637 56.6352 258.393 57.9809C263.251 61.7038 269.729 63.924 276.174 64.0654C276.401 64.0706 276.617 64.0706 276.844 64.0706C282.731 64.0706 288.538 62.3584 293.201 59.3632C295.384 62.0547 298.729 63.7565 302.669 63.8978C311.013 64.1911 319.711 64.5576 328.525 64.9922C328.778 65.0027 329.021 65.0079 329.258 65.0079C332.312 65.0079 335.039 64.0078 337.149 62.3112C339.38 64.5052 342.25 65.7148 345.726 65.9138C348.115 66.0552 349.302 66.1232 351.691 66.2751C352.087 66.296 352.451 66.3117 352.794 66.3117C356.254 66.3117 360.906 65.1231 364.023 59.6827C365.621 64.2906 369.73 67.4585 375.079 67.8512C384.336 68.5424 393.693 69.3016 402.897 70.0975C403.33 70.1342 403.762 70.1604 404.184 70.1604C406.99 70.1604 409.522 69.3016 411.542 67.8198C416.02 70.8149 421.306 72.6895 426.464 73.255C427.683 73.3911 428.928 73.4592 430.156 73.4592C437.704 73.4592 444.361 70.9668 448.918 66.4426C452.917 62.4683 455.026 57.2373 455.016 51.3151C454.995 47.388 453.987 43.6441 452.051 40.3348ZM321.826 34.5697V23.584C323.145 27.307 324.469 31.0247 325.793 34.7477C324.469 34.6901 323.145 34.6273 321.826 34.5697Z" fill="#FF9700"/>
<path d="M38.2094 68.4691C34.0425 68.4691 31.3524 65.5526 30.5243 62.7302C27.6127 53.504 22.5227 37.4078 20.2229 30.1242L6.1344 18.7406L18.4137 17.0807C20.397 16.8136 25.0598 16.1853 25.6294 16.1225C28.3775 15.824 29.7542 15.6774 32.5023 15.3841C32.8662 15.3475 33.2249 15.3265 33.5783 15.3265C35.3453 15.3265 39.5439 15.8711 41.543 20.7251C41.5588 20.678 41.5694 20.6256 41.5852 20.5733C43.1728 14.8762 47.5244 13.8604 49.3231 13.6876C51.0742 13.52 51.9498 13.4363 53.701 13.2687C53.9806 13.2425 54.2601 13.232 54.5344 13.232C55.9058 13.232 60.3576 13.6509 62.3039 18.8191C62.3145 18.7772 62.325 18.7406 62.3356 18.6987C63.3747 14.6982 66.4287 12.1115 70.5323 11.7607C73.1855 11.5355 74.5094 11.4255 77.1678 11.2056C77.3999 11.1847 77.6214 11.1794 77.8377 11.1794C80.2746 11.1794 82.4794 12.2791 83.8824 14.1955C85.3171 16.1539 85.7127 18.7615 84.9585 21.1911C81.1449 34.0252 77.3313 46.8644 73.5283 59.6984C72.7582 62.5417 70.2264 65.4792 66.1755 65.8405C64.0867 66.0238 63.0424 66.1181 60.9536 66.3066C60.6793 66.3327 60.3998 66.3432 60.1308 66.3432C56.064 66.3432 53.3318 63.6727 52.3243 60.9761C52.2557 61.196 52.1872 61.4159 52.1239 61.6358C51.3116 64.4739 48.6954 67.4533 44.5548 67.867C42.3711 68.0869 41.274 68.1968 39.0903 68.422C38.7896 68.4534 38.4942 68.4691 38.2094 68.4691Z" fill="#101D33"/>
<path d="M86.2507 64.144C82.7853 64.144 80.8231 62.3323 79.9634 61.2484C78.8346 59.8293 78.265 58.0804 78.265 56.0488V18.8453C78.265 14.2112 81.3928 10.86 86.045 10.4987C94.9855 9.81803 104.063 9.18444 113.035 8.60322C113.278 8.58751 113.494 8.58228 113.705 8.58228C118.363 8.58228 121.738 11.9963 121.738 16.7037V21.8509C121.738 24.6366 120.62 26.951 118.721 28.4276C119.296 29.5691 119.618 30.8939 119.618 32.3391V37.1774C119.618 38.8006 119.238 40.2615 118.542 41.4973C121.142 42.7959 122.804 45.4611 122.804 48.7599V53.8443C122.804 58.5308 119.639 61.8767 114.924 62.1699C105.693 62.7616 96.3095 63.4162 87.0419 64.1178C86.7835 64.1335 86.5145 64.144 86.2507 64.144Z" fill="#101D33"/>
<path d="M125.399 61.5152C122.498 61.5152 120.662 60.2585 119.629 59.2008C118.621 58.164 117.419 56.3156 117.419 53.3833V16.2479C117.419 11.5406 120.573 8.19983 125.272 7.93278C130.494 7.63432 135.774 7.3568 140.959 7.10546C141.814 7.03739 142.668 7.00073 143.502 7.00073C149.562 7.00073 154.684 8.82818 158.307 12.2893C161.778 15.5986 163.825 20.7406 163.92 26.401C164.009 31.6582 161.657 36.8892 157.78 40.7326C159.473 43.0994 162.917 47.9272 162.917 47.9272L162.975 48.0162C164.563 50.3987 164.758 53.42 163.482 55.8967C162.216 58.3525 159.758 59.8867 156.904 60.0019C153.961 60.1224 152.495 60.1852 149.552 60.3161C149.367 60.3266 149.188 60.3266 149.019 60.3266C143.934 60.3266 141.582 56.9335 140.806 55.8234C140.511 55.3941 140.226 54.9961 139.957 54.6086C139.261 58.3839 136.312 60.9445 132.177 61.1696C129.708 61.3005 128.479 61.3686 126.011 61.51C125.8 61.51 125.594 61.5152 125.399 61.5152Z" fill="#101D33"/>
<path d="M167.179 59.5989C163.73 59.5989 161.752 57.8604 160.881 56.8237C159.658 55.368 159.041 53.5563 159.041 51.4356V14.2373C159.041 9.52471 162.353 6.11591 167.1 5.95359C176.088 5.64989 185.182 5.39855 194.133 5.19434C194.217 5.19434 194.296 5.19434 194.37 5.19434C199.196 5.19434 202.567 8.56124 202.567 13.3838V18.531C202.567 21.2801 201.454 23.5735 199.587 25.0397C200.141 26.1707 200.441 27.485 200.441 28.9302V33.7685C200.441 35.4179 200.04 36.8998 199.312 38.1408C201.971 39.4341 203.627 42.0994 203.627 45.482V50.5664C203.627 55.3313 200.272 58.7297 195.472 58.8291C186.2 59.0334 176.8 59.2952 167.543 59.6041C167.427 59.5989 167.301 59.5989 167.179 59.5989Z" fill="#101D33"/>
<path d="M214.393 58.5255C210.094 58.5255 207.33 55.5042 206.507 52.5981C202.662 40.1201 198.817 27.6474 194.966 15.1694L194.919 15.0123L194.876 14.8553C194.265 12.4309 194.766 9.85989 196.221 7.97484C197.63 6.15263 199.798 5.08444 202.171 5.04255C204.93 4.99542 206.312 4.97448 209.07 4.93782H209.213C211.138 4.93782 215.796 5.53999 217.737 11.0956C219.604 5.27294 224.478 4.79645 225.955 4.78597C227.711 4.7755 228.587 4.7755 230.343 4.77026C231.83 4.77026 236.704 5.23105 238.556 11.1009C239.763 7.19988 243.013 4.80692 247.158 4.80692H247.227C249.885 4.82263 251.22 4.8331 253.878 4.85928C256.373 4.88546 258.615 6.02696 260.023 7.99055C261.453 9.98032 261.833 12.5984 261.057 15.0176C257.233 27.5008 253.414 39.984 249.595 52.4672C248.773 55.389 246.003 58.4208 241.689 58.4208C239.563 58.4155 238.513 58.4103 236.419 58.4103C231.983 58.4051 229.098 55.3366 228.223 52.4096C228.207 52.3572 228.191 52.3101 228.175 52.2577C228.154 52.3206 228.133 52.3886 228.112 52.4515C227.242 55.368 224.372 58.4365 219.963 58.4679C217.768 58.4836 216.671 58.4941 214.477 58.515L214.393 58.5255Z" fill="#101D33"/>
<path d="M276.828 59.8032C276.638 59.8032 276.443 59.8032 276.253 59.7979C270.715 59.6775 265.161 57.782 261.02 54.6088C255.946 50.7183 253.177 45.1888 253.224 39.0415V24.469C253.177 19.3427 255.065 14.7087 258.689 11.0695C262.924 6.81765 269.381 4.27808 275.963 4.27808C276.158 4.27808 276.348 4.27808 276.538 4.28331C287.989 4.53989 299.773 12.4257 299.689 25.1864V39.7536C299.736 44.817 297.879 49.3935 294.303 52.9803C290.062 57.2583 283.527 59.8032 276.828 59.8032ZM275.932 38.2613C276.074 38.2927 276.28 38.3189 276.538 38.3241H276.638C276.749 38.3241 276.844 38.3189 276.929 38.3136V25.8357C276.776 25.799 276.549 25.7676 276.253 25.7571H276.164C276.074 25.7571 275.995 25.7624 275.926 25.7624V38.2613H275.932Z" fill="#101D33"/>
<path d="M329.237 60.7403C329.068 60.7403 328.894 60.7351 328.715 60.7299C319.88 60.2953 311.161 59.9287 302.806 59.6303C298.059 59.4627 294.746 56.0539 294.746 51.3465V14.143C294.746 9.41471 298.164 5.97974 302.874 5.97974C303.001 5.97974 303.133 5.97974 303.265 5.98497C305.749 6.07399 306.994 6.12111 309.473 6.21537C314.204 6.39864 317.512 9.80743 317.512 14.5043V38.6643C321.457 38.8371 325.418 39.0152 329.348 39.2037C334.121 39.4393 337.323 42.7748 337.323 47.5136V52.598C337.323 57.3158 333.921 60.7403 329.237 60.7403Z" fill="#101D33"/>
<path d="M352.778 62.0337C352.519 62.0337 352.24 62.0233 351.934 62.0076C349.544 61.8609 348.347 61.7876 345.958 61.6515C340.984 61.3635 339.027 58.405 337.872 55.8654L337.761 55.6193L337.671 55.3628C333.204 42.7591 328.731 30.1555 324.258 17.5571C323.361 15.1118 323.667 12.4466 325.091 10.4044C326.505 8.37276 328.794 7.20508 331.373 7.20508C331.516 7.20508 331.658 7.21031 331.806 7.21555C334.591 7.35693 335.983 7.43024 338.763 7.57685C342.956 7.80201 345.768 10.0012 347.123 14.1169C347.936 16.6251 348.753 19.128 349.565 21.6309C350.299 19.4526 351.77 15.0594 351.77 15.0594C353.521 9.94887 357.261 8.87544 360.088 8.87544C360.352 8.87544 360.642 8.88591 360.948 8.90686C363.607 9.07965 364.936 9.16867 367.589 9.35194C370.142 9.52997 372.357 10.8181 373.676 12.8916C374.979 14.9495 375.221 17.5571 374.33 19.8977C369.878 31.962 365.432 44.0315 360.985 56.1011L360.885 56.3838L360.753 56.6561C360.109 57.9809 358.168 62.0337 352.778 62.0337Z" fill="#101D33"/>
<path d="M404.163 65.8876C403.868 65.8876 403.562 65.8719 403.256 65.8457C394.025 65.0446 384.647 64.2853 375.39 63.5889C370.727 63.2433 367.594 59.8921 367.594 55.2476V18.0493C367.594 13.3524 370.959 9.9436 375.59 9.9436C375.833 9.9436 376.086 9.95408 376.355 9.97502C385.322 10.6453 394.395 11.3783 403.33 12.1533C407.956 12.5565 411.052 15.9182 411.052 20.5156V25.6576C411.052 28.349 409.944 30.6163 408.13 32.0562C408.647 33.1663 408.926 34.4387 408.926 35.8211V40.6594C408.926 42.4031 408.462 43.9635 407.644 45.2411C410.403 46.592 412.107 49.3149 412.107 52.7184V57.8028C412.112 62.4893 408.768 65.8876 404.163 65.8876Z" fill="#101D33"/>
<path d="M430.141 69.1915C429.075 69.1915 427.994 69.1339 426.923 69.0135C416.021 67.8039 404.427 59.9862 404.401 47.88C404.401 46.9742 404.39 44.2094 406.616 41.9997C407.017 41.6018 407.549 41.1672 408.219 40.8006C406.109 37.7846 404.97 34.3758 404.965 30.7628C404.954 26.5057 406.595 22.6152 409.712 19.5206C413.568 15.6824 419.412 13.3889 425.346 13.3889C425.953 13.3889 426.554 13.4151 427.139 13.4622C438.306 14.4152 449.615 21.5627 449.625 33.3756C449.625 34.2815 449.625 37.0253 447.468 39.214C447.215 39.4706 446.909 39.7377 446.55 39.9995C449.778 43.8324 450.68 47.9533 450.68 51.3464C450.691 56.1009 449.013 60.2847 445.838 63.4369C442.109 67.1441 436.528 69.1915 430.141 69.1915Z" fill="#101D33"/>
<path d="M78.7555 19.3219C74.9261 32.2083 71.102 45.0946 67.2779 57.9863C67.2779 57.9863 66.9667 59.3163 65.5953 59.4367C63.5013 59.62 62.4516 59.7142 60.3576 59.908C58.7383 60.0546 58.3638 58.6617 58.3638 58.6617C56.2856 52.2631 54.2074 45.8644 52.1292 39.4709C50.0457 46.2623 47.9675 53.059 45.8893 59.8504C45.8893 59.8504 45.5148 61.3113 43.8955 61.4736C41.7012 61.6935 40.6041 61.8035 38.4099 62.0286C37.0385 62.17 36.7273 60.8976 36.7273 60.8976C32.8926 48.7443 25.2127 24.4324 25.2127 24.4324L19.2841 23.448C19.2841 23.448 25.7877 22.5683 26.331 22.5107C29.0738 22.2123 30.4399 22.0657 33.1827 21.7777C35.0499 21.5787 35.4244 22.783 35.6723 23.5004C37.7294 30.318 39.7865 37.1303 41.8436 43.9479C43.8375 36.7219 45.8313 29.5011 47.8251 22.2751C48.073 21.3849 48.5108 20.2225 49.9455 20.0864C51.6914 19.9188 52.5617 19.835 54.3076 19.6727C55.679 19.5418 56.1168 20.6205 56.3647 21.4635C58.3796 28.3073 60.3945 35.1458 62.4147 41.9896C64.4718 34.7792 66.5289 27.5742 68.5913 20.3639C68.7759 19.6046 69.2137 18.327 71.0862 18.1647C73.7341 17.9395 75.0527 17.8295 77.7006 17.6096C78.8135 17.5206 79.0034 18.5574 78.7555 19.3219Z" fill="white"/>
<path d="M116.332 48.7546V53.839C116.332 54.9543 115.957 55.6612 114.517 55.7502C105.192 56.3472 95.8664 57.0017 86.5514 57.7033C85.1167 57.8133 84.7422 57.164 84.7422 56.0487V18.8452C84.7422 17.7299 85.1167 17.0178 86.5514 16.9078C95.5182 16.2271 104.485 15.5987 113.457 15.0175C114.892 14.9285 115.266 15.5883 115.266 16.7036V21.8508C115.266 22.9661 114.892 23.673 113.457 23.762C107.17 24.1652 100.883 24.5946 94.6005 25.0449V31.8049C100.176 31.3965 105.756 31.0142 111.332 30.6582C112.766 30.5639 113.141 31.2237 113.141 32.339V37.1773C113.141 38.2926 112.766 38.9995 111.332 39.0885C105.751 39.4446 100.176 39.8321 94.6005 40.2352V48.4195C101.236 47.943 107.877 47.4927 114.517 47.0685C115.957 46.9795 116.332 47.6393 116.332 48.7546Z" fill="white"/>
<path d="M156.635 53.572C153.687 53.6924 152.21 53.7553 149.261 53.8862C147.763 53.9543 147.009 53.4306 146.134 52.1687C143.433 48.2991 142.083 46.3669 139.382 42.5078C138.818 41.7905 138.696 41.115 138.696 39.3818V34.4231C138.696 33.3078 139.071 32.6061 140.511 32.538C141.012 32.5119 141.26 32.5014 141.761 32.4752C144.825 32.3286 147.7 30.0875 147.7 27.1761C147.7 23.9506 145.2 22.0184 141.951 22.1755C138.628 22.3378 136.966 22.4216 133.638 22.5944V52.8494C133.638 54.2737 132.952 54.6821 131.829 54.7449C129.355 54.8758 128.115 54.9439 125.642 55.0853C124.518 55.1481 123.89 54.813 123.89 53.3887V16.2481C123.89 15.1328 124.202 14.4311 125.642 14.3526C130.89 14.0541 136.138 13.7766 141.386 13.5252C145.748 13.1587 150.58 13.8394 153.824 16.9288C156.066 19.0652 157.379 22.6154 157.448 26.5111C157.543 31.8626 153.592 37.1197 148.76 39.2195C151.704 43.3299 154.642 47.4404 157.574 51.5561C158.139 52.3991 157.827 53.5249 156.635 53.572Z" fill="white"/>
<path d="M197.155 45.4767V50.5611C197.155 51.6764 196.781 52.3676 195.341 52.3938C185.999 52.598 176.663 52.8546 167.327 53.174C165.887 53.2264 165.513 52.5561 165.513 51.4408V14.2373C165.513 13.122 165.887 12.4256 167.327 12.3732C176.31 12.0695 185.292 11.8182 194.275 11.6192C195.715 11.5878 196.09 12.2633 196.09 13.3786V18.5258C196.09 19.6411 195.715 20.3323 194.275 20.3585C187.977 20.4999 181.685 20.6622 175.392 20.8455V27.6055C180.978 27.4327 186.564 27.286 192.149 27.1604C193.589 27.129 193.964 27.8044 193.964 28.9197V33.758C193.964 34.8734 193.589 35.5645 192.149 35.596C186.564 35.7216 180.978 35.8682 175.392 36.041V44.2253C182.043 44.0315 188.689 43.8587 195.341 43.7121C196.775 43.6859 197.155 44.3562 197.155 45.4767Z" fill="white"/>
<path d="M254.881 13.096C251.041 25.6315 247.206 38.1671 243.371 50.7027C243.371 50.7027 243.06 52.0012 241.678 51.996C239.579 51.9908 238.524 51.9855 236.425 51.9855C234.8 51.9855 234.426 50.5613 234.426 50.5613C232.337 43.9741 230.253 37.3817 228.17 30.7945C226.086 37.3974 223.998 44.0003 221.914 50.6032C221.914 50.6032 221.54 52.0327 219.91 52.0431C217.71 52.0588 216.608 52.0693 214.408 52.0955C213.032 52.1112 212.721 50.8126 212.721 50.8126C208.87 38.3032 205.009 25.7939 201.153 13.2845C200.963 12.5409 201.153 11.4885 202.277 11.4675C205.03 11.4204 206.407 11.3994 209.155 11.3628C211.033 11.3366 211.407 12.5724 211.66 13.3159C213.728 20.322 215.79 27.3281 217.853 34.3342C219.852 27.2914 221.856 20.2539 223.861 13.2112C224.108 12.342 224.546 11.2214 225.986 11.2162C227.737 11.2109 228.613 11.2057 230.364 11.2005C231.741 11.1952 232.179 12.3105 232.427 13.1798C234.447 20.2068 236.472 27.2338 238.492 34.2609C240.555 27.2443 242.617 20.2225 244.685 13.2059C244.869 12.4624 245.307 11.2266 247.185 11.2371C249.838 11.2528 251.162 11.2633 253.815 11.2895C254.944 11.2999 255.134 12.3577 254.881 13.096Z" fill="white"/>
<path d="M293.217 39.8007C293.327 48.807 284.419 53.5511 276.396 53.373C268.283 53.195 259.612 48.0478 259.696 39.0729V24.4376C259.591 15.4679 268.32 10.5354 276.396 10.7134C284.545 10.8967 293.285 16.1643 293.217 25.1654V39.8007ZM283.401 25.7624C283.401 21.7933 280.526 19.4265 276.396 19.3375C272.329 19.2485 269.454 21.4948 269.454 25.4639V38.3607C269.454 42.3298 272.329 44.6756 276.396 44.7594C280.521 44.8484 283.401 42.6283 283.401 38.6644V25.7624Z" fill="white"/>
<path d="M330.846 47.5135V52.5979C330.846 53.7132 330.471 54.3782 329.031 54.3049C320.37 53.8808 311.699 53.509 303.033 53.2053C301.593 53.1529 301.218 52.4618 301.218 51.3412V14.1429C301.218 12.7187 301.909 12.3679 303.033 12.4097C305.507 12.4988 306.746 12.5459 309.22 12.6401C310.343 12.682 311.034 13.0852 311.034 14.5095V44.8273C317.037 45.0734 323.034 45.3405 329.031 45.6285C330.471 45.6965 330.846 46.3982 330.846 47.5135Z" fill="white"/>
<path d="M368.264 17.6357C363.807 29.721 359.35 41.801 354.898 53.8914C354.149 55.4571 353.711 55.677 352.34 55.5932C349.94 55.4466 348.743 55.3733 346.343 55.2372C344.971 55.1586 344.533 54.8863 343.784 53.2317C339.312 40.6123 334.833 27.993 330.35 15.3789C330.039 14.5568 330.287 13.5776 331.473 13.6352C334.248 13.7766 335.635 13.8447 338.41 13.9965C340.034 14.0856 340.472 14.6039 340.973 16.1225C343.806 24.8408 346.638 33.5591 349.471 42.2775C352.282 33.8942 355.093 25.5163 357.905 17.133C358.4 15.6774 358.838 15.2061 360.526 15.3213C363.174 15.4941 364.498 15.5831 367.146 15.7664C368.327 15.8449 368.575 16.8503 368.264 17.6357Z" fill="white"/>
<path d="M405.64 52.7237V57.8081C405.64 58.9234 405.266 59.5727 403.831 59.4471C394.516 58.6354 385.201 57.8814 375.881 57.185C374.446 57.0803 374.071 56.3734 374.071 55.2528V18.0493C374.071 16.934 374.446 16.2795 375.881 16.3842C384.847 17.0545 393.814 17.7771 402.776 18.552C404.211 18.6777 404.585 19.3951 404.585 20.5104V25.6576C404.585 26.7729 404.211 27.4222 402.776 27.2965C396.494 26.752 390.217 26.2336 383.935 25.7361V32.4961C389.51 32.9307 395.08 33.3863 400.656 33.8733C402.09 33.9989 402.465 34.7111 402.465 35.8264V40.6647C402.465 41.78 402.09 42.4293 400.656 42.3036C395.086 41.8219 389.51 41.3611 383.935 40.9265V49.1107C390.57 49.6343 397.201 50.1894 403.836 50.7654C405.266 50.891 405.64 51.6032 405.64 52.7237Z" fill="white"/>
<path d="M444.208 51.3465C444.219 60.4052 435.405 63.4842 427.64 62.6254C419.94 61.7719 410.894 56.5357 410.872 47.8645C410.867 46.4402 411.247 46.1627 412.676 46.2936C415.097 46.5187 416.305 46.6339 418.721 46.8643C420.156 47.0005 420.841 47.257 420.963 48.8174C421.026 49.6291 421.337 50.4669 422.144 51.4722C423.394 53.0797 425.947 53.8914 428.252 54.127C431.618 54.4674 434.645 53.6819 434.36 50.5402C434.007 46.6706 426.728 45.4453 423.516 44.2305C417.766 42.0627 411.442 37.46 411.421 30.7367C411.405 23.1861 420.092 19.306 426.564 19.8558C433.754 20.4684 443.127 24.8774 443.132 33.3705C443.132 34.0617 443.053 34.4754 442.826 34.7058C442.562 34.9728 442.098 34.9938 441.328 34.91C438.886 34.6482 437.668 34.5173 435.225 34.2607C434.044 34.135 433.859 33.2396 433.543 32.4123C433.3 31.7683 432.978 31.2394 432.235 30.4173C431.053 29.1763 428.806 28.3909 426.939 28.2024C424.882 27.9982 421.063 28.9721 421.459 31.2551C422.134 35.1561 429.086 36.9783 433.11 38.5649C438.881 40.8427 444.203 44.508 444.208 51.3465Z" fill="white"/>
<path d="M38.4151 62.0286C40.6094 61.8034 41.7065 61.6934 43.9007 61.4735C45.52 61.3112 45.8945 59.8503 45.8945 59.8503C47.767 53.7239 49.6395 47.6027 51.512 41.4763C48.458 41.6962 45.3987 41.9214 42.3394 42.1518L41.8436 43.9478C41.6696 43.3718 41.4955 42.8011 41.3214 42.2251C37.9087 42.4817 34.4961 42.7435 31.0834 43.0105C33.093 49.3726 35.2134 56.0854 36.7325 60.9028C36.7325 60.9028 37.0437 62.1699 38.4151 62.0286Z" fill="#AAAAAA"/>
<path d="M60.3523 59.9077C62.4463 59.7192 63.496 59.625 65.59 59.4365C66.9614 59.316 67.2726 57.986 67.2726 57.986C69.0449 52.0115 70.8224 46.0369 72.5947 40.0676C69.3244 40.2771 66.0489 40.4865 62.7786 40.7064C62.6573 41.1358 62.536 41.56 62.4094 41.9893C62.2881 41.5757 62.1668 41.1672 62.0454 40.7536C58.944 40.963 55.8478 41.1725 52.7463 41.3924C54.6188 47.1523 56.486 52.9069 58.3585 58.6615C58.3585 58.6615 58.733 60.0544 60.3523 59.9077Z" fill="#AAAAAA"/>
<path d="M86.5514 57.7033C95.8716 56.9964 105.192 56.3419 114.523 55.7502C115.957 55.6612 116.332 54.9543 116.332 53.839V48.7546C116.332 47.6393 115.957 46.9795 114.523 47.0685C107.882 47.4927 101.241 47.943 94.6057 48.4195V40.2352C100.181 39.8268 105.762 39.4446 111.337 39.0885C112.492 39.0152 112.956 38.5439 113.099 37.7847C103.652 38.2455 94.1996 38.7586 84.7422 39.3189V56.0434C84.7422 57.1587 85.1167 57.8133 86.5514 57.7033Z" fill="#AAAAAA"/>
<path d="M139.387 42.5078C142.088 46.3669 143.438 48.2991 146.139 52.1687C147.014 53.4306 147.763 53.9542 149.261 53.8862C152.21 53.7553 153.687 53.6924 156.635 53.572C157.822 53.5249 158.139 52.3938 157.574 51.5508C154.642 47.4351 151.704 43.3247 148.76 39.2142C150.395 38.5021 151.925 37.4234 153.238 36.1091C148.391 36.2767 143.549 36.4495 138.696 36.6432V39.3818C138.702 41.1202 138.823 41.7957 139.387 42.5078Z" fill="#AAAAAA"/>
<path d="M125.642 55.0854C128.115 54.944 129.35 54.8759 131.829 54.745C132.952 54.6822 133.638 54.279 133.638 52.8495V36.8528C130.389 36.9889 127.14 37.1251 123.89 37.2717V53.3888C123.89 54.8131 124.518 55.1482 125.642 55.0854Z" fill="#AAAAAA"/>
<path d="M167.327 53.1688C176.663 52.8546 185.999 52.5928 195.341 52.3938C196.781 52.3624 197.155 51.6764 197.155 50.5611V45.4767C197.155 44.3614 196.781 43.6859 195.341 43.7174C188.689 43.864 182.043 44.0315 175.392 44.2305V36.041C180.978 35.8682 186.564 35.7216 192.149 35.5959C192.898 35.5802 193.357 35.3865 193.626 35.0461C184.264 35.2189 174.891 35.4441 165.513 35.7164V51.4356C165.513 52.5509 165.887 53.2211 167.327 53.1688Z" fill="#AAAAAA"/>
<path d="M214.414 52.0955C216.613 52.0745 217.716 52.0641 219.915 52.0431C221.54 52.0326 221.914 50.6032 221.914 50.6032C223.591 45.2884 225.274 39.9683 226.951 34.6536C220.569 34.685 214.182 34.7373 207.789 34.8211C209.429 40.1516 211.075 45.4821 212.72 50.8126C212.726 50.8126 213.037 52.1112 214.414 52.0955Z" fill="#AAAAAA"/>
<path d="M236.43 51.9907C238.529 51.9907 239.584 51.996 241.683 52.0012C243.06 52.0064 243.371 50.7078 243.371 50.7078C245.012 45.3459 246.652 39.9893 248.293 34.6274C241.995 34.6064 235.691 34.6169 229.388 34.6431C231.071 39.9474 232.748 45.2569 234.426 50.5612C234.431 50.5665 234.805 51.9907 236.43 51.9907Z" fill="#AAAAAA"/>
<path d="M276.396 53.373C284.424 53.551 293.327 48.807 293.217 39.8007V35.2085C289.941 35.1352 286.671 35.0723 283.395 35.0148V38.6592C283.395 42.6282 280.521 44.8484 276.391 44.7594C272.324 44.6704 269.449 42.3245 269.449 38.3607V34.8105C266.2 34.7686 262.946 34.7372 259.691 34.7058V39.0781C259.612 48.0477 268.283 53.195 276.396 53.373Z" fill="#AAAAAA"/>
<path d="M303.033 53.2053C311.704 53.509 320.37 53.8808 329.037 54.3049C330.471 54.373 330.846 53.7132 330.846 52.5979V47.5135C330.846 46.3982 330.471 45.6965 329.037 45.6232C323.039 45.3352 317.037 45.0682 311.034 44.8221V35.6744C307.764 35.5749 304.494 35.4859 301.218 35.4021V51.3465C301.218 52.4618 301.593 53.153 303.033 53.2053Z" fill="#AAAAAA"/>
<path d="M346.343 55.2318C348.743 55.3732 349.94 55.4413 352.34 55.5879C353.717 55.6717 354.154 55.4517 354.903 53.8861C356.892 48.4823 358.88 43.0837 360.874 37.6852C357.641 37.5176 354.402 37.3658 351.169 37.2139C350.599 38.9 350.035 40.586 349.471 42.2721C348.906 40.5337 348.336 38.79 347.772 37.0516C344.481 36.8997 341.189 36.7636 337.893 36.6274C339.855 42.1621 341.822 47.6916 343.784 53.2263C344.528 54.881 344.971 55.1533 346.343 55.2318Z" fill="#AAAAAA"/>
<path d="M375.881 57.1796C385.201 57.8761 394.521 58.6301 403.831 59.4417C405.266 59.5674 405.64 58.9181 405.64 57.8027V52.7184C405.64 51.603 405.266 50.8857 403.831 50.76C397.201 50.184 390.57 49.6342 383.93 49.1054V40.9263C389.505 41.361 395.075 41.8165 400.65 42.2982C402.085 42.4239 402.459 41.7746 402.459 40.6593V40.2247C393.002 39.5597 383.539 38.9523 374.066 38.4077V55.2527C374.066 56.368 374.441 57.0749 375.881 57.1796Z" fill="#AAAAAA"/>
<path d="M434.371 50.5401C434.656 53.6871 431.633 54.4673 428.268 54.127C425.963 53.8913 423.405 53.0797 422.16 51.4722C421.348 50.4616 421.042 49.6238 420.973 48.8122C420.852 47.2518 420.161 46.9952 418.732 46.8591C416.311 46.6287 415.103 46.5135 412.687 46.2883C411.252 46.1574 410.872 46.4349 410.878 47.8592C410.894 56.5304 419.945 61.7666 427.646 62.6201C435.41 63.4789 444.229 60.4 444.213 51.3413C444.208 47.9377 442.889 45.3196 440.853 43.2722C433.247 42.602 425.636 41.9684 418.014 41.3767C419.76 42.5758 421.675 43.5288 423.532 44.2305C426.739 45.4453 434.018 46.6705 434.371 50.5401Z" fill="#AAAAAA"/>
</g>
<defs>
<clipPath id="clip0_1_58">
<rect width="455" height="86" fill="white"/>
</clipPath>
</defs>
</svg>
